<svg width="1436" height="824" viewBox="0 0 1436 824" fill="none" xmlns="http://www.w3.org/2000/svg">
<g clip-path="url(#clip0)">
<path opacity="0.1" d="M11.0293 433.797C36.4113 399.33 93.8105 405.338 134.515 423.33C175.219 441.322 215.836 468.179 260.632 463.019C298.403 458.665 329.375 431.285 346.108 399.697C362.84 368.109 367.75 332.491 372.459 297.606C378.377 253.779 384.29 209.924 390.199 166.041C392.364 149.996 394.92 133.061 405.773 120.365C420.113 103.619 446.402 98.4693 468.888 103.504C491.375 108.538 510.55 122.04 526.955 137.101C579.507 185.331 609.283 250.527 655.225 304.2C664.579 315.127 675.143 325.928 689.118 331.204C709.262 338.792 732.391 333.422 752.069 324.976C816.28 297.459 859.414 241.306 901.806 188.911C922.429 163.446 947.572 136.212 981.88 133.438C1017.98 130.455 1049.31 156.025 1070.53 183.102C1138.62 270.225 1153.21 389.167 1235.46 465.154C1245.67 474.574 1256.94 483.283 1269.92 489.133C1274.2 491.056 1278.67 492.684 1283.27 494C1355.03 514.651 1378.95 597.546 1325.87 646.697C1324.73 647.743 1323.56 648.79 1322.37 649.837C1314.49 656.755 1305.56 663.297 1294.91 665.359C1285 667.264 1274.77 665.066 1264.95 662.69C1202.17 647.461 1140.15 624.183 1075.25 625.314C1012.1 626.36 952.192 650.611 889.744 659.34C847.756 665.212 805.037 664.04 762.582 662.773C621.185 658.545 479.817 653.626 338.478 648.016C268.325 645.336 198.146 642.782 128.006 639.799C73.9682 637.465 39.5463 632.326 33.2763 580.192C27.787 534.537 -21.5167 478.007 11.0293 433.797Z" fill="#6C63FF"/>
<path d="M994.509 824C1182.24 824 1334.43 806.319 1334.43 784.51C1334.43 762.7 1182.24 745.019 994.509 745.019C806.773 745.019 654.583 762.7 654.583 784.51C654.583 806.319 806.773 824 994.509 824Z" fill="#30374E"/>
<path d="M187.269 614.146C187.269 614.146 203.888 611.006 214.778 620.29C214.778 620.29 207.778 625.523 191.31 619.724L187.269 614.146Z" fill="#6C63FF"/>
<path d="M185.43 614.01C185.43 614.01 175.584 625.606 181.829 637.507C181.829 637.507 190.34 634.105 190.101 619.243L185.43 614.01Z" fill="#6C63FF"/>
<path d="M174.351 596.53C174.351 596.53 180.255 585.907 208.344 598.749C208.344 598.749 205.323 605.845 193.387 605.95C181.452 606.055 177.876 601.753 174.351 596.53Z" fill="#6C63FF"/>
<path d="M172.562 595.882C172.562 595.882 158.499 595.337 159.292 621.964C159.292 621.964 168.269 623.011 173.872 614.24C179.474 605.469 176.503 600.937 172.562 595.882Z" fill="#6C63FF"/>
<path d="M162.768 575.158C162.768 575.158 169.063 556.653 198.612 567.957C198.612 567.957 193.45 584.902 166.129 581.187L162.768 575.158Z" fill="#6C63FF"/>
<path d="M151.801 548.636C151.801 548.636 165.121 529.545 192.707 545.035C192.707 545.035 184.913 562.692 154.571 555.031L151.801 548.636Z" fill="#6C63FF"/>
<path d="M146.589 523.097C146.589 523.097 162.49 505.356 189.849 520.679C189.849 520.679 174.665 536.316 146.929 527.378L146.589 523.097Z" fill="#6C63FF"/>
<path d="M141.881 498.27C141.881 498.27 157.946 479.786 184.172 494.973C184.172 494.973 165.689 511.542 142.208 502.373L141.881 498.27Z" fill="#6C63FF"/>
<path d="M141.653 476.019C141.653 476.019 158.21 452.437 182.761 466.421C182.761 466.421 164.605 486.904 142.006 480.299L141.653 476.019Z" fill="#6C63FF"/>
<path d="M143.882 449.873C143.882 449.873 161.508 426.428 185.543 442.358C185.543 442.358 164.014 463.03 144.159 454.028L143.882 449.873Z" fill="#6C63FF"/>
<path d="M148.452 426.365C148.452 426.365 169.856 404.061 190.693 411.325C190.693 411.325 168.433 434.979 147.886 432.007L148.452 426.365Z" fill="#6C63FF"/>
<path d="M154.748 403.967C154.748 403.967 179.349 376.754 195.503 384.478C195.503 384.478 177.486 405.506 153.225 408.918L154.748 403.967Z" fill="#6C63FF"/>
<path d="M164.341 377.863C164.341 377.863 185.959 355.549 203.371 359.819C203.371 359.819 185.178 382.73 161.697 384.604L164.341 377.863Z" fill="#6C63FF"/>
<path d="M172.965 353.466C172.965 353.466 197.113 331.905 208.608 334.815C208.608 334.815 191.8 358.218 172.197 357.998L172.965 353.466Z" fill="#6C63FF"/>
<path d="M181.489 330.9C181.489 330.9 201.747 305.623 213.997 306.827C213.997 306.827 202.276 329.005 181.691 333.339L181.489 330.9Z" fill="#6C63FF"/>
<path d="M190.29 300.641C190.29 300.641 208.408 281.111 219.009 280.566C219.009 280.566 205.525 306.042 189.963 306.733L190.29 300.641Z" fill="#6C63FF"/>
<path d="M195.326 280.535L211.164 241.087C211.164 241.087 214.942 275.731 193.538 287.788L195.326 280.535Z" fill="#6C63FF"/>
<path d="M199.594 237.769C199.594 237.769 200.148 205.542 197.92 203.051C197.92 203.051 213.62 228.945 200.614 251.94L199.594 237.769Z" fill="#6C63FF"/>
<path d="M161.962 574.771C161.962 574.771 141.49 565.748 130.775 591.234C130.775 591.234 149.031 599.901 164.769 580.967L161.962 574.771Z" fill="#6C63FF"/>
<path d="M151.084 547.641C151.084 547.641 126.256 539.844 116.649 566.356C116.649 566.356 136.127 575.933 153.803 554.047L151.084 547.641Z" fill="#6C63FF"/>
<path d="M145.594 524.698C145.594 524.698 126.973 508.883 102.334 527.137C102.334 527.137 119.885 540.943 145.934 529.011L145.594 524.698Z" fill="#6C63FF"/>
<path d="M141.289 498.312C141.289 498.312 122.403 481.765 98.8467 499.736C98.8467 499.736 119.822 514.106 141.654 502.405L141.289 498.312Z" fill="#6C63FF"/>
<path d="M141.704 476.647C141.704 476.647 127.401 452.082 101.629 464.432C101.629 464.432 117.82 486.025 140.961 480.907L141.704 476.647Z" fill="#6C63FF"/>
<path d="M145.356 449.685C145.356 449.685 131.091 424.67 104.991 438.098C104.991 438.098 123.449 460.717 144.449 453.725L145.356 449.685Z" fill="#6C63FF"/>
<path d="M151.058 426.344C151.058 426.344 143.957 398.451 121.408 397.174C121.408 397.174 128.559 426.617 148.49 431.588L151.058 426.344Z" fill="#6C63FF"/>
<path d="M155.327 403.988C155.327 403.988 150.706 370.17 132.085 370.013C132.085 370.013 134.792 395.73 153.627 408.897L155.327 403.988Z" fill="#6C63FF"/>
<path d="M166.192 376.785C166.192 376.785 158.374 348.882 140.42 346.432C140.42 346.432 144.827 373.645 165.009 383.819L166.192 376.785Z" fill="#6C63FF"/>
<path d="M175.081 353.55C175.081 353.55 172.563 324.17 161.358 320.454C161.358 320.454 156.813 347.437 172.248 357.485L175.081 353.55Z" fill="#6C63FF"/>
<path d="M182.295 330.534C182.295 330.534 178.329 300.338 166.796 296.706C166.796 296.706 164.908 320.873 180.772 332.606L182.295 330.534Z" fill="#6C63FF"/>
<path d="M192.052 302.965C192.052 302.965 189.988 278.358 181.54 273.02C181.54 273.02 175.773 300.432 188.275 308.146L192.052 302.965Z" fill="#6C63FF"/>
<path d="M194.243 279.373L183.163 238.826C183.163 238.826 175.32 272.988 195.212 286.742L194.243 279.373Z" fill="#6C63FF"/>
<path d="M192.519 238.554C192.519 238.554 170.322 212.094 170.498 209.017C170.498 209.017 174.955 237.779 201.231 250.768L192.519 238.554Z" fill="#6C63FF"/>
<path d="M194.243 230.295C194.243 230.295 172.261 192.208 163.485 189.476C163.485 189.476 191.297 199.346 195.729 229.039L194.243 230.295Z" fill="#6C63FF"/>
<path d="M189.887 306.932L188.628 306.67C201.029 262.71 202.779 234.995 193.538 228.631L194.394 227.773C204.139 234.514 202.603 261.894 189.887 306.932Z" fill="#444053"/>
<path d="M154.282 410.195L152.33 409.744C153.702 405.704 155.188 401.591 156.774 397.54C170.624 362.247 182.131 329.508 189.195 304.451L190.793 303.666C183.718 328.786 172.525 362.729 158.701 398.053C157.127 402.093 155.641 406.175 154.282 410.195Z" fill="#444053"/>
<path d="M213.519 645.064C213.242 644.844 185.543 622.174 164.266 582.013C151.799 558.506 143.89 533.506 140.835 507.942C137.058 475.987 142.22 439.773 153.425 406.521L155.037 407.902C129.856 482.539 147.244 544.323 166.658 581.019C187.721 620.792 215.105 643.243 215.382 643.462L213.519 645.064Z" fill="#444053"/>
<path d="M244.013 525.525C244.013 525.525 254.085 523.61 260.657 529.241C260.657 529.241 256.414 532.381 246.468 528.896L244.013 525.525Z" fill="#6C63FF"/>
<path d="M242.918 525.452C242.918 525.452 236.975 532.465 240.753 539.655C240.753 539.655 245.889 537.562 245.789 528.613L242.918 525.452Z" fill="#6C63FF"/>
<path d="M236.219 514.871C236.219 514.871 239.782 508.455 256.741 516.221C256.741 516.221 254.915 520.502 247.701 520.564C240.487 520.627 238.372 518.032 236.219 514.871Z" fill="#6C63FF"/>
<path d="M235.137 514.483C235.137 514.483 226.626 514.159 227.104 530.246C227.104 530.246 232.531 530.874 235.918 525.578C239.304 520.282 237.517 517.539 235.137 514.483Z" fill="#6C63FF"/>
<path d="M229.182 501.955C229.182 501.955 233.047 490.766 250.875 497.58C250.875 497.58 247.765 507.826 231.246 505.576L229.182 501.955Z" fill="#6C63FF"/>
<path d="M222.584 485.92C222.584 485.92 230.629 474.407 247.311 483.743C247.311 483.743 242.59 494.419 224.259 489.782L222.584 485.92Z" fill="#6C63FF"/>
<path d="M219.424 470.482C219.424 470.482 229.043 459.753 245.574 469.016C245.574 469.016 236.408 478.436 219.638 473.067L219.424 470.482Z" fill="#6C63FF"/>
<path d="M216.578 455.473C216.578 455.473 226.298 444.295 242.149 453.484C242.149 453.484 230.981 463.501 216.78 457.953L216.578 455.473Z" fill="#6C63FF"/>
<path d="M216.453 442.013C216.453 442.013 226.525 427.768 241.294 436.214C241.294 436.214 230.315 448.596 216.655 444.588L216.453 442.013Z" fill="#6C63FF"/>
<path d="M217.762 426.219C217.762 426.219 228.451 412.037 242.942 421.634C242.942 421.634 229.924 434.132 217.913 428.689L217.762 426.219Z" fill="#6C63FF"/>
<path d="M220.557 412.005C220.557 412.005 233.487 398.524 246.09 402.92C246.09 402.92 232.631 417.217 220.242 415.417L220.557 412.005Z" fill="#6C63FF"/>
<path d="M224.36 398.462C224.36 398.462 239.229 382.019 248.999 386.676C248.999 386.676 238.108 399.393 223.44 401.455L224.36 398.462Z" fill="#6C63FF"/>
<path d="M230.163 382.699C230.163 382.699 243.231 369.208 253.782 371.793C253.782 371.793 242.791 385.64 228.602 386.77L230.163 382.699Z" fill="#6C63FF"/>
<path d="M235.376 367.931C235.376 367.931 249.968 354.9 256.918 356.658C256.918 356.658 246.77 370.798 234.91 370.673L235.376 367.931Z" fill="#6C63FF"/>
<path d="M240.525 354.293C240.525 354.293 252.776 339.011 260.179 339.723C260.179 339.723 253.103 353.131 240.651 355.758L240.525 354.293Z" fill="#6C63FF"/>
<path d="M245.863 335.997C245.863 335.997 256.816 324.191 263.225 323.856C263.225 323.856 255.066 339.263 245.661 339.65L245.863 335.997Z" fill="#6C63FF"/>
<path d="M248.898 323.835L258.454 300.013C258.454 300.013 260.72 320.946 247.765 328.273L248.898 323.835Z" fill="#6C63FF"/>
<path d="M251.479 297.983C251.479 297.983 251.806 278.504 250.459 276.997C250.459 276.997 259.952 292.645 252.083 306.555L251.479 297.983Z" fill="#6C63FF"/>
<path d="M228.716 501.724C228.716 501.724 216.352 496.261 209.83 511.668C209.83 511.668 220.872 516.901 230.39 505.471L228.716 501.724Z" fill="#6C63FF"/>
<path d="M222.156 485.271C222.156 485.271 207.136 480.561 201.332 496.586C201.332 496.586 213.104 502.374 223.793 489.154L222.156 485.271Z" fill="#6C63FF"/>
<path d="M218.819 471.445C218.819 471.445 207.576 461.889 192.669 472.91C192.669 472.91 203.283 481.283 219.033 474.04L218.819 471.445Z" fill="#6C63FF"/>
<path d="M216.225 455.494C216.225 455.494 204.806 445.498 190.566 456.363C190.566 456.363 203.245 465.039 216.427 457.974L216.225 455.494Z" fill="#6C63FF"/>
<path d="M216.478 442.358C216.478 442.358 207.828 427.506 192.241 434.969C192.241 434.969 202.036 448.021 216.024 444.933L216.478 442.358Z" fill="#6C63FF"/>
<path d="M218.681 426.083C218.681 426.083 210.057 410.958 194.243 419.081C194.243 419.081 205.398 432.76 218.102 428.501L218.681 426.083Z" fill="#6C63FF"/>
<path d="M222.131 412.005C222.131 412.005 217.837 395.133 204.202 394.369C204.202 394.369 208.521 412.162 220.57 415.166L222.131 412.005Z" fill="#6C63FF"/>
<path d="M224.711 398.472C224.711 398.472 221.942 378.031 210.61 377.926C210.61 377.926 212.247 393.479 223.629 401.444L224.711 398.472Z" fill="#6C63FF"/>
<path d="M231.272 382.029C231.272 382.029 226.55 365.157 215.697 363.671C215.697 363.671 218.366 380.114 230.566 386.268L231.272 382.029Z" fill="#6C63FF"/>
<path d="M236.647 367.983C236.647 367.983 235.099 350.19 228.363 347.971C228.363 347.971 225.606 364.288 234.935 370.359L236.647 367.983Z" fill="#6C63FF"/>
<path d="M241.017 354.063C241.017 354.063 238.625 335.809 231.65 333.611C231.65 333.611 230.504 348.264 240.098 355.319L241.017 354.063Z" fill="#6C63FF"/>
<path d="M246.908 337.4C246.908 337.4 245.649 322.527 240.613 319.292C240.613 319.292 237.126 335.871 244.68 340.529L246.908 337.4Z" fill="#6C63FF"/>
<path d="M248.267 323.134L241.569 298.621C241.569 298.621 236.823 319.282 248.847 327.592L248.267 323.134Z" fill="#6C63FF"/>
<path d="M247.198 298.464C247.198 298.464 233.789 282.482 233.89 280.608C233.89 280.608 236.572 297.993 252.461 305.843L247.198 298.464Z" fill="#6C63FF"/>
<path d="M248.205 293.461C248.205 293.461 234.91 270.435 229.609 268.812C229.609 268.812 246.43 274.778 249.099 292.739L248.205 293.461Z" fill="#6C63FF"/>
<path d="M245.599 339.786L244.806 339.629C252.36 313.054 253.367 296.298 247.777 292.456L248.293 291.933C254.223 296.015 253.292 312.573 245.599 339.786Z" fill="#444053"/>
<path d="M224.082 402.229L222.898 401.947C223.729 399.508 224.636 397.028 225.593 394.62C233.94 373.279 240.915 353.487 245.183 338.342L246.153 337.86C241.872 353.037 235.111 373.572 226.751 394.934C225.794 397.352 224.9 399.791 224.082 402.229Z" fill="#444053"/>
<path d="M259.889 544.219C259.725 544.082 242.98 530.382 230.113 506.099C222.581 491.888 217.801 476.776 215.949 461.323C213.645 442.002 216.792 420.106 223.578 400L224.548 400.837C209.326 445.959 219.839 483.314 231.573 505.503C244.315 529.576 260.858 543.109 261.034 543.245L259.889 544.219Z" fill="#444053"/>
<path d="M297.76 596.551C294.529 597.028 291.365 597.779 288.317 598.791C220.405 621.336 221.538 768.914 221.538 768.914H201.545C201.545 768.914 195.25 705.581 167.815 615.224C143.101 533.93 244.465 461.072 265.05 447.256C267.367 445.718 268.651 444.901 268.651 444.901C370.746 476.092 297.76 596.551 297.76 596.551Z" fill="#AFC0E0"/>
<path opacity="0.2" d="M276.08 447.466C273.726 446.566 271.296 445.707 268.715 444.922C268.715 444.922 267.456 445.739 265.114 447.277C244.529 461.093 143.164 533.951 167.879 615.244C195.313 705.602 201.545 768.914 201.545 768.914H212.789C212.789 768.914 206.556 705.581 179.059 615.224C154.445 534.307 254.828 461.721 276.08 447.466Z" fill="white"/>
<path d="M634.602 615.245C607.105 705.602 600.91 768.914 600.91 768.914H580.879C580.879 768.914 582.138 614.679 509.454 597.462C507.88 597.069 506.278 596.758 504.657 596.53C504.657 596.53 431.634 476.071 533.766 444.901C533.766 444.901 534.799 445.54 536.662 446.785C555.585 459.377 659.594 533.009 634.602 615.245Z" fill="#AFC0E0"/>
<path opacity="0.1" d="M297.76 596.551C294.529 597.028 291.365 597.779 288.318 598.791C276.039 548.838 268.262 498.193 265.051 447.277C267.367 445.739 268.652 444.922 268.652 444.922C370.746 476.092 297.76 596.551 297.76 596.551Z" fill="black"/>
<path opacity="0.1" d="M536.7 446.806C532.537 497.574 523.438 547.978 509.492 597.525C507.918 597.132 506.316 596.821 504.695 596.593C504.695 596.593 431.672 476.134 533.804 444.964C533.767 444.922 534.799 445.561 536.7 446.806Z" fill="black"/>
<path d="M499.318 619.389C492.268 642.514 484.004 666.238 474.528 690.562C474.528 690.562 429.555 729.508 320.926 690.562C320.926 690.562 310.073 665.128 298.138 621.891C271.862 526.823 240.348 345.658 307.492 159.573C327.487 103.632 355.906 50.0164 392.074 0C392.074 0 449.435 54.7505 491.537 159.542C533.639 264.333 560.432 419.185 499.318 619.389Z" fill="#E3E8F4"/>
<path d="M401.203 382.27C451.01 382.27 491.387 348.704 491.387 307.298C491.387 265.892 451.01 232.326 401.203 232.326C351.395 232.326 311.019 265.892 311.019 307.298C311.019 348.704 351.395 382.27 401.203 382.27Z" fill="#AFC0E0"/>
<path d="M465.162 307.34C465.162 317.408 461.722 327.27 455.244 335.777C448.766 344.285 439.515 351.088 428.568 355.396C417.621 359.704 405.428 361.339 393.406 360.112C381.385 358.885 370.03 354.845 360.662 348.463C356.09 345.332 352.057 341.694 348.676 337.651C347.158 335.844 345.779 333.96 344.547 332.009C339.75 324.398 337.248 315.932 337.257 307.34C337.257 306.911 337.257 306.492 337.257 306.073C337.585 294.703 342.285 283.719 350.668 274.731C359.051 265.743 370.677 259.223 383.841 256.127C388.868 254.975 394.04 254.322 399.252 254.18H401.165C409.567 254.176 417.887 255.548 425.65 258.218C433.413 260.887 440.468 264.802 446.411 269.739C452.354 274.675 457.069 280.537 460.286 286.988C463.503 293.44 465.16 300.356 465.162 307.34Z" fill="#6C63FF"/>
<path d="M491.526 159.542C389.205 200.267 307.431 159.542 307.431 159.542C327.448 103.609 355.888 50.0039 392.075 0C392.075 0 449.437 54.7505 491.526 159.542Z" fill="#AFC0E0"/>
<path d="M499.319 619.39C494.534 635.047 489.204 650.974 483.329 667.169C480.542 674.894 477.605 682.681 474.516 690.531C474.516 690.531 429.543 729.477 320.914 690.531C320.914 690.531 317.389 682.273 312.101 667.169C308.148 655.761 303.225 640.469 298.088 621.86C298.088 621.86 338.528 636.209 395.927 636.209C431.386 636.31 466.521 630.595 499.319 619.39Z" fill="#AFC0E0"/>
<path d="M483.33 667.169C480.543 674.894 477.605 682.681 474.517 690.531C474.517 690.531 429.544 729.477 320.915 690.531C320.915 690.531 317.389 682.273 312.102 667.169C312.089 667.169 422.808 693.65 483.33 667.169Z" fill="#E3E8F4"/>
<path opacity="0.2" d="M383.879 256.054L383.741 256.137L337.282 306C337.282 306.419 337.282 306.837 337.282 307.266C337.274 315.859 339.775 324.325 344.572 331.936L399.315 254.107L383.879 256.054Z" fill="white"/>
<path opacity="0.2" d="M398.71 301.06L360.662 348.421C356.089 345.291 352.056 341.653 348.676 337.609L394.001 297.166L398.71 301.06Z" fill="white"/>
<path opacity="0.2" d="M345.226 690.541C345.226 690.541 334.373 665.097 322.438 621.87C296.162 526.792 264.648 345.626 331.792 159.541C349.841 109.191 374.698 60.7041 405.886 15.0089C397.362 5.07615 392.037 0.0103455 392.037 0.0103455C355.863 50.0122 327.436 103.614 307.43 159.541C240.286 345.626 271.799 526.792 298.075 621.87C310.011 665.097 320.864 690.541 320.864 690.541C363.784 705.916 396.758 709.14 420.957 707.423C400.283 706.115 375.178 701.269 345.226 690.541Z" fill="white"/>
<path d="M1179.69 762.938C1179.69 762.938 1238.53 702.065 1234.63 641.097C1232.8 615.538 1240.99 590.175 1257.97 568.815C1266.15 558.711 1275.42 549.251 1285.67 540.556" stroke="#535461" stroke-width="2" stroke-miterlimit="10"/>
<path d="M1283.44 502.164C1279.24 510.652 1285.53 541.602 1285.53 541.602C1285.53 541.602 1316.22 523.306 1320.42 514.818C1322.44 510.742 1322.43 506.166 1320.39 502.097C1318.35 498.028 1314.45 494.799 1309.54 493.121C1304.64 491.443 1299.14 491.453 1294.24 493.149C1289.35 494.845 1285.46 498.088 1283.44 502.164Z" fill="#6C63FF"/>
<path d="M1229.58 538.734C1231.61 547.757 1257.13 570.888 1257.13 570.888C1257.13 570.888 1270.98 541.676 1268.9 532.643C1267.93 528.308 1264.93 524.472 1260.55 521.978C1256.18 519.485 1250.79 518.537 1245.58 519.345C1240.36 520.153 1235.75 522.65 1232.75 526.286C1229.75 529.922 1228.61 534.4 1229.58 538.734Z" fill="#6C63FF"/>
<path d="M1191.13 619.557C1198.36 626.496 1234.44 635.759 1234.44 635.759C1234.44 635.759 1228.6 604.747 1221.37 597.797C1217.87 594.575 1212.98 592.622 1207.76 592.359C1202.54 592.095 1197.41 593.541 1193.46 596.386C1189.51 599.232 1187.05 603.25 1186.62 607.581C1186.19 611.912 1187.82 616.211 1191.16 619.557H1191.13Z" fill="#6C63FF"/>
<path d="M1178.6 686.156C1184.31 694.016 1217.99 708.209 1217.99 708.209C1217.99 708.209 1218.54 676.809 1212.84 668.959C1211.48 667.09 1209.69 665.463 1207.58 664.168C1205.46 662.874 1203.06 661.939 1200.51 661.416C1197.96 660.893 1195.31 660.793 1192.72 661.121C1190.12 661.449 1187.63 662.199 1185.38 663.328C1183.13 664.457 1181.17 665.943 1179.61 667.702C1178.06 669.46 1176.93 671.456 1176.3 673.576C1175.67 675.695 1175.55 677.897 1175.95 680.056C1176.34 682.214 1177.25 684.287 1178.6 686.156Z" fill="#6C63FF"/>
<path d="M1295.14 585.823C1284.89 589.225 1247.72 583.677 1247.72 583.677C1247.72 583.677 1270.03 558.359 1280.3 554.947C1285.22 553.31 1290.73 553.367 1295.6 555.106C1300.48 556.844 1304.32 560.12 1306.29 564.215C1308.26 568.309 1308.19 572.886 1306.1 576.938C1304.01 580.991 1300.07 584.187 1295.14 585.823Z" fill="#6C63FF"/>
<path d="M1279.3 663.558C1268.3 664.26 1234.83 649.722 1234.83 649.722C1234.83 649.722 1265.23 631.102 1276.24 630.4C1281.47 630.158 1286.6 631.628 1290.54 634.495C1294.47 637.361 1296.9 641.396 1297.3 645.734C1297.7 650.072 1296.04 654.368 1292.68 657.7C1289.31 661.032 1284.51 663.135 1279.3 663.558Z" fill="#6C63FF"/>
<path d="M1251.44 737.347C1240.72 739.587 1204.79 729.958 1204.79 729.958C1204.79 729.958 1230.97 707.34 1241.68 705.111C1244.23 704.578 1246.88 704.467 1249.47 704.785C1252.07 705.103 1254.57 705.844 1256.82 706.964C1259.07 708.084 1261.04 709.562 1262.61 711.314C1264.17 713.065 1265.31 715.056 1265.95 717.173C1266.59 719.29 1266.72 721.491 1266.34 723.65C1265.96 725.81 1265.07 727.885 1263.72 729.759C1262.37 731.632 1260.59 733.266 1258.49 734.568C1256.38 735.87 1253.99 736.815 1251.44 737.347Z" fill="#6C63FF"/>
<path opacity="0.25" d="M1283.44 502.164C1279.24 510.652 1285.53 541.602 1285.53 541.602C1285.53 541.602 1316.22 523.306 1320.42 514.818C1322.44 510.742 1322.43 506.166 1320.39 502.097C1318.35 498.028 1314.45 494.799 1309.54 493.121C1304.64 491.443 1299.14 491.453 1294.24 493.149C1289.35 494.845 1285.46 498.088 1283.44 502.164Z" fill="black"/>
<path opacity="0.25" d="M1229.58 538.734C1231.61 547.757 1257.13 570.888 1257.13 570.888C1257.13 570.888 1270.98 541.676 1268.9 532.643C1267.93 528.308 1264.93 524.472 1260.55 521.978C1256.18 519.485 1250.79 518.537 1245.58 519.345C1240.36 520.153 1235.75 522.65 1232.75 526.286C1229.75 529.922 1228.61 534.4 1229.58 538.734Z" fill="black"/>
<path opacity="0.25" d="M1191.13 619.557C1198.36 626.496 1234.44 635.759 1234.44 635.759C1234.44 635.759 1228.6 604.747 1221.37 597.797C1217.87 594.575 1212.98 592.622 1207.76 592.359C1202.54 592.095 1197.41 593.541 1193.46 596.386C1189.51 599.232 1187.05 603.25 1186.62 607.581C1186.19 611.912 1187.82 616.211 1191.16 619.557H1191.13Z" fill="black"/>
<path opacity="0.25" d="M1178.6 686.156C1184.31 694.016 1217.99 708.209 1217.99 708.209C1217.99 708.209 1218.54 676.809 1212.84 668.959C1211.48 667.09 1209.69 665.463 1207.58 664.168C1205.46 662.874 1203.06 661.939 1200.51 661.416C1197.96 660.893 1195.31 660.793 1192.72 661.121C1190.12 661.449 1187.63 662.199 1185.38 663.328C1183.13 664.457 1181.17 665.943 1179.61 667.702C1178.06 669.46 1176.93 671.456 1176.3 673.576C1175.67 675.695 1175.55 677.897 1175.95 680.056C1176.34 682.214 1177.25 684.287 1178.6 686.156Z" fill="black"/>
<path opacity="0.25" d="M1295.14 585.823C1284.89 589.225 1247.72 583.677 1247.72 583.677C1247.72 583.677 1270.03 558.359 1280.3 554.947C1285.22 553.31 1290.73 553.367 1295.6 555.106C1300.48 556.844 1304.32 560.12 1306.29 564.215C1308.26 568.309 1308.19 572.886 1306.1 576.938C1304.01 580.991 1300.07 584.187 1295.14 585.823Z" fill="black"/>
<path opacity="0.25" d="M1279.3 663.558C1268.3 664.26 1234.83 649.722 1234.83 649.722C1234.83 649.722 1265.23 631.102 1276.24 630.4C1281.47 630.158 1286.6 631.628 1290.54 634.495C1294.47 637.361 1296.9 641.396 1297.3 645.734C1297.7 650.072 1296.04 654.368 1292.68 657.7C1289.31 661.032 1284.51 663.135 1279.3 663.558Z" fill="black"/>
<path opacity="0.25" d="M1251.44 737.347C1240.72 739.587 1204.79 729.958 1204.79 729.958C1204.79 729.958 1230.97 707.34 1241.68 705.111C1244.23 704.578 1246.88 704.467 1249.47 704.785C1252.07 705.103 1254.57 705.844 1256.82 706.964C1259.07 708.084 1261.04 709.562 1262.61 711.314C1264.17 713.065 1265.31 715.056 1265.95 717.173C1266.59 719.29 1266.72 721.491 1266.34 723.65C1265.96 725.81 1265.07 727.885 1263.72 729.759C1262.37 731.632 1260.59 733.266 1258.49 734.568C1256.38 735.87 1253.99 736.815 1251.44 737.347Z" fill="black"/>
<path d="M1180.22 760.395C1180.22 760.395 1263.69 724.557 1289.84 667.515C1300.62 643.526 1320.48 623.094 1346.42 609.289C1358.8 602.81 1371.86 597.288 1385.45 592.794" stroke="#535461" stroke-width="2" stroke-miterlimit="10"/>
<path d="M1402.18 556.925C1394.2 563.278 1384.87 593.694 1384.87 593.694C1384.87 593.694 1421.84 587.299 1429.82 580.956C1433.66 577.91 1435.89 573.72 1436.01 569.308C1436.13 564.897 1434.14 560.625 1430.48 557.433C1426.81 554.24 1421.77 552.389 1416.47 552.286C1411.16 552.183 1406.02 553.837 1402.18 556.883V556.925Z" fill="#6C63FF"/>
<path d="M1335.13 572.217C1332.61 581.155 1344.63 610.943 1344.63 610.943C1344.63 610.943 1371.44 588.89 1374.03 579.899C1375.24 575.616 1374.35 571.111 1371.57 567.371C1368.78 563.63 1364.33 560.959 1359.18 559.943C1354.04 558.926 1348.61 559.647 1344.1 561.948C1339.6 564.248 1336.37 567.941 1335.13 572.217Z" fill="#6C63FF"/>
<path d="M1260.57 633.153C1263.79 641.934 1292.27 662.553 1292.27 662.553C1292.27 662.553 1302.05 632.2 1298.83 623.461C1298.06 621.372 1296.81 619.43 1295.14 617.744C1293.47 616.058 1291.42 614.661 1289.1 613.634C1286.79 612.608 1284.25 611.97 1281.63 611.759C1279.02 611.548 1276.38 611.767 1273.87 612.403C1271.36 613.039 1269.02 614.081 1266.99 615.468C1264.96 616.855 1263.28 618.561 1262.05 620.488C1260.81 622.415 1260.05 624.525 1259.79 626.698C1259.54 628.871 1259.8 631.064 1260.57 633.153Z" fill="#6C63FF"/>
<path d="M1216.65 689.819C1218.04 698.935 1241.91 723.249 1241.91 723.249C1241.91 723.249 1257.72 694.748 1256.32 685.632C1255.66 681.259 1252.93 677.285 1248.73 674.585C1244.54 671.885 1239.23 670.68 1233.97 671.235C1228.71 671.79 1223.93 674.06 1220.68 677.545C1217.43 681.03 1215.98 685.445 1216.65 689.819Z" fill="#6C63FF"/>
<path d="M1372.1 637.35C1361.06 637.015 1329.8 619.421 1329.8 619.421C1329.8 619.421 1362.54 603.794 1373.58 604.129C1376.2 604.21 1378.78 604.719 1381.17 605.628C1383.55 606.537 1385.7 607.828 1387.49 609.427C1389.28 611.027 1390.67 612.903 1391.58 614.949C1392.5 616.995 1392.92 619.171 1392.82 621.352C1392.73 623.533 1392.11 625.677 1391.02 627.662C1389.93 629.646 1388.37 631.432 1386.45 632.918C1384.52 634.403 1382.27 635.56 1379.81 636.32C1377.35 637.08 1374.73 637.43 1372.1 637.35Z" fill="#6C63FF"/>
<path d="M1319.73 703.08C1309.32 700.013 1285.81 675.448 1285.81 675.448C1285.81 675.448 1322.69 668.676 1333.09 671.743C1335.56 672.472 1337.84 673.599 1339.79 675.06C1341.74 676.522 1343.33 678.288 1344.46 680.258C1345.59 682.229 1346.24 684.365 1346.38 686.545C1346.51 688.725 1346.13 690.906 1345.25 692.964C1344.38 695.021 1343.02 696.915 1341.26 698.537C1339.51 700.159 1337.38 701.478 1335.01 702.417C1332.64 703.356 1330.07 703.898 1327.45 704.012C1324.83 704.126 1322.2 703.809 1319.73 703.08Z" fill="#6C63FF"/>
<path d="M1258.28 761.159C1247.4 759.599 1219.25 738.687 1219.25 738.687C1219.25 738.687 1254.21 726.839 1265.09 728.399C1270.31 729.148 1274.97 731.593 1278.02 735.195C1281.08 738.796 1282.29 743.26 1281.39 747.605C1280.49 751.949 1277.55 755.818 1273.22 758.36C1268.88 760.901 1263.51 761.908 1258.29 761.159H1258.28Z" fill="#6C63FF"/>
<path d="M1298.9 726.755L1234.2 648.748C1234.2 648.748 1232.94 629.437 1228.76 624.926C1224.58 620.415 1227.86 610.378 1227.86 610.378C1227.86 610.378 1232.39 604.862 1228.46 604.36C1224.53 603.857 1227.86 591.559 1227.86 591.559L1227.56 571.997C1227.56 571.997 1231.18 553.157 1228.16 548.677C1227.27 547.457 1226.83 546.051 1226.89 544.626C1226.94 543.202 1227.49 541.822 1228.46 540.65C1228.46 540.65 1232.09 529.859 1228.46 527.106C1224.84 524.353 1225.74 507.533 1226.65 494.241C1227.56 480.948 1220.29 473.423 1220.29 471.413C1220.29 469.404 1196.37 449.842 1196.37 448.094C1196.37 446.346 1181.26 439.061 1172.18 437.052C1163.11 435.042 1158.57 433.545 1158.88 432.541C1159.18 431.536 1144.66 427.527 1144.66 427.527C1144.66 427.527 1131.96 426.774 1127.11 421.498C1122.26 416.223 1107.48 414.716 1107.05 414.664C1106.97 414.318 1106.86 413.963 1106.78 413.617C1106.69 413.272 1106.59 412.864 1106.5 412.487C1107.65 410.885 1108.7 409.253 1109.66 407.567C1109.95 407.055 1110.23 406.521 1110.49 406.039C1115.79 405.84 1121.23 404.898 1125.38 402.198C1127.52 400.714 1129.26 398.88 1130.51 396.811C1131.75 394.742 1132.47 392.482 1132.62 390.172C1132.88 385.536 1131.66 380.925 1129.09 376.806C1126.44 372.285 1122.55 367.606 1123.89 362.708C1124.48 360.615 1126 358.731 1126.78 356.658C1128.26 352.733 1126.9 348.421 1124.6 344.779C1122.31 341.136 1119.13 337.933 1116.58 334.406C1113.34 329.911 1111.17 324.935 1110.2 319.753C1109.68 317.032 1109.48 314.164 1107.83 311.767C1106.47 309.988 1104.66 308.472 1102.53 307.319C1093.07 301.694 1081.65 298.814 1070.03 299.124C1061.79 299.364 1053.58 301.217 1045.41 300.369C1040.49 299.867 1035.79 298.412 1031.03 297.229C1020.89 294.738 1009.19 293.712 1000.35 298.537C991.512 303.362 988 312.856 982.019 320.276C976.731 326.849 968.976 332.355 964.947 339.305C964.947 339.179 965.022 339.043 965.073 338.907C964.082 340.515 963.326 342.216 962.819 343.973C961.283 349.436 962.567 355.151 964.166 360.604C964.985 363.42 966.118 366.476 969.051 368.035C971.985 369.595 976.139 369.249 979.614 369.762C979.488 370.233 979.337 370.715 979.211 371.196C975.613 385.329 978.55 400.07 987.437 412.483C996.324 424.897 1010.51 434.072 1027.17 438.182C1027.17 438.695 1027.17 439.229 1027.17 439.71C1027.16 441.151 1027.06 442.591 1026.85 444.022C1026.85 444.022 996.448 438.789 988.277 442.348C980.105 445.906 964.078 448.628 961.661 450.616C959.243 452.605 953.2 451.119 947.811 462.915C942.423 474.71 941.768 486.736 934.806 492.221C927.843 497.705 924.23 501.505 923.928 505.524C923.625 509.543 924.834 510.537 922.102 511.804C919.37 513.07 915.454 518.324 916.663 520.334C916.663 520.334 918.174 525.348 913.339 527.849C908.504 530.351 909.096 535.374 909.096 535.374C909.096 535.374 907.283 540.901 903.053 542.146C898.822 543.392 896.09 551.681 896.09 551.681L882.329 564.817L855.147 539.802C853.111 537.927 850.263 536.801 847.229 536.672C844.196 536.542 841.224 537.42 838.968 539.111L825.622 549.117C820.471 550.156 815.816 552.461 812.264 555.732C809.356 558.214 807.014 561.115 805.352 564.294L798.037 569.757C795.738 572.127 794.333 575.009 794 578.041C793.666 581.073 794.418 584.119 796.161 586.797L813.573 602.8L813.687 602.936C807.102 603.627 801.285 605.385 796.841 608.64C770.842 627.7 770.527 645.273 774.468 653.28C778.409 661.287 811.358 692.163 811.358 692.163C811.358 692.163 830.507 712.856 858.156 723.867L857.942 724.044C857.4 724.526 856.859 725.091 856.33 725.614L855.877 726.096L855.461 726.577L854.97 727.184C854.832 727.341 854.706 727.509 854.58 727.676C854.454 727.844 854.228 728.147 854.064 728.399L853.724 728.88C853.523 729.194 853.308 729.518 853.107 729.853L852.906 730.178C852.654 730.617 852.402 731.068 852.163 731.539C852.075 731.706 851.999 731.884 851.911 732.051C851.76 732.376 851.596 732.711 851.445 733.098C851.294 733.485 851.256 733.527 851.168 733.747C851.08 733.967 850.904 734.396 850.778 734.731C850.652 735.066 850.602 735.202 850.526 735.432C850.451 735.662 850.274 736.165 850.161 736.542C850.048 736.918 850.022 736.981 849.947 737.222C849.783 737.798 849.62 738.394 849.481 739.022C849.481 739.252 849.38 739.493 849.33 739.734C849.229 740.152 849.141 740.582 849.066 741.021C849.003 741.325 848.965 741.628 848.914 741.932C848.864 742.235 848.789 742.759 848.726 743.177L848.612 744.14C848.612 744.601 848.512 745.082 848.474 745.564C848.474 745.857 848.474 746.15 848.411 746.443C848.411 747.238 848.31 748.034 848.298 748.871C847.693 778.177 849.758 782.479 849.758 782.479C849.758 782.479 854.026 791.826 865.811 792.496C867.54 792.601 869.279 792.524 870.985 792.265C886.711 790.005 923.6 784.74 936.606 786.75C944.425 787.953 958.903 786.174 969.215 784.552L971.922 784.123L973.81 789.105L979.791 787.744L984.827 790.183L988.037 791.711C994.005 808.541 1018.25 802.805 1018.25 802.805L1023.94 805.548L1082.31 806.804C1082.31 806.804 1094.9 813.083 1102.97 815.051C1103.93 815.293 1104.91 815.471 1105.91 815.585C1111.32 815.946 1116.75 816.03 1122.17 815.836C1126.64 815.742 1130.11 815.585 1130.11 815.585C1130.11 815.585 1129.51 802.408 1128.66 787.66C1150.97 786.886 1170.75 785.724 1182.72 783.976C1213.89 779.423 1226.9 755.863 1231.68 743.272C1233.12 748.418 1234.14 753.638 1234.74 758.898C1236.01 763.493 1237.63 768.017 1239.59 772.442C1241.29 776.002 1243.53 779.371 1246.24 782.469C1269.23 775.948 1255.32 766.172 1250.47 761.902C1245.62 757.632 1253.81 754.125 1253.81 754.125C1253.81 754.125 1260.1 750.619 1259.55 747.354C1258.99 744.088 1258.64 740.582 1279.2 740.833C1299.76 741.084 1298.9 726.755 1298.9 726.755ZM979.539 566.617C979.803 568.051 982.674 583.51 985.268 587.55C985.809 588.408 986.023 591.454 985.947 595.808C973.76 595.002 961.069 594.573 961.069 594.573C961.434 594.94 961.662 595.387 961.724 595.861L959.81 595.505L957.027 594.94L979.476 566.554L979.539 566.617ZM935.07 625.439L956.159 628.223L957.934 628.453C957.329 631.188 956.963 633.955 956.839 636.733C956.839 636.994 957.317 637.308 957.997 637.675C957.702 639.056 957.563 640.458 957.581 641.861C957.921 643.253 967.78 646.247 979.086 648.738C978.935 649.24 978.783 649.722 978.632 650.172C968.648 645.807 952.91 643.766 951.097 640.521C949.284 637.277 895.7 621.682 895.7 621.682C895.7 621.682 893.749 620.823 890.374 619.463L904.475 621.682L908.353 621.357C917.145 623.186 926.069 624.542 935.07 625.418V625.439Z" fill="url(#paint0_linear)"/>
<path d="M1230.06 737.672C1230.06 737.672 1221.67 779.779 1179.11 786.007C1136.54 792.234 994.458 790.989 994.458 790.989C994.458 790.989 913.225 781.276 883.852 724.212C854.479 667.148 835.593 644.467 860.774 643.473C885.954 642.479 1021.74 681.603 1029.48 682.095C1037.23 682.587 1237.55 595.379 1230.06 737.672Z" fill="#434175"/>
<path opacity="0.05" d="M1230.06 737.672C1230.06 737.672 1221.67 779.779 1179.11 786.007C1136.54 792.234 994.458 790.989 994.458 790.989C994.458 790.989 913.225 781.276 883.852 724.212C854.479 667.148 835.593 644.467 860.774 643.473C885.954 642.479 1021.74 681.603 1029.48 682.095C1037.23 682.587 1237.55 595.379 1230.06 737.672Z" fill="black"/>
<path d="M849.027 784.51C849.027 784.51 853.27 793.804 864.941 794.463C866.654 794.564 868.375 794.486 870.065 794.233C885.652 791.993 922.227 786.76 935.107 788.749C942.862 789.952 957.203 788.173 967.413 786.571C974.212 785.525 979.173 784.478 979.173 784.478C979.173 784.478 967.187 751.341 965.676 750.347C964.165 749.352 911.727 723.186 911.727 723.186L870.179 720.706H870.053C870.053 720.706 862.36 721.135 855.977 727.582C851.583 731.988 847.818 739.231 847.566 751.1C846.987 780.271 849.027 784.51 849.027 784.51Z" fill="#565387"/>
<path opacity="0.05" d="M849.028 784.51C849.028 784.51 853.271 793.804 864.942 794.463C860.847 790.088 857.063 785.517 853.611 780.773L853.825 756.606C851.974 738.509 862.16 726.923 870.192 720.737H870.066C870.066 720.737 848.184 721.972 847.58 751.09C846.976 780.208 849.028 784.51 849.028 784.51Z" fill="black"/>
<path opacity="0.1" d="M1029.23 731.685L1067.9 706.565L1128.75 656.724C1128.75 656.724 1122.17 656.462 1112.27 656.106C1109.75 657.414 1102.89 661.528 1102.63 666.573C1102.33 672.664 1086.18 666.991 1077.79 670.477C1069.41 673.962 1028.34 717.66 1021.14 717.377C1013.94 717.095 1008.26 714.342 1005.25 718.581C1005.25 718.675 1005.11 718.759 1005.03 718.853L1029.23 731.685Z" fill="black"/>
<path opacity="0.1" d="M855.99 727.603C857.363 728.158 858.748 728.65 860.17 729.194C889.556 739.66 925.816 761.64 928.523 765.576C930.16 768.004 951.186 778.617 967.415 786.571C974.213 785.525 979.174 784.478 979.174 784.478C979.174 784.478 967.188 751.341 965.677 750.347C964.166 749.352 911.728 723.186 911.728 723.186L870.18 720.706H870.054C870.054 720.706 862.374 721.156 855.99 727.603Z" fill="black"/>
<path d="M774.456 656.179C778.346 664.155 810.968 694.812 810.968 694.812C810.968 694.812 831.641 717.231 861.027 727.697C890.412 738.164 926.673 760.144 929.367 764.079C931.104 766.643 954.548 778.366 971.016 786.425L974.705 788.215L982.888 792.161L987.219 794.254C987.219 794.254 997.292 787.556 1007.25 780.815C1017.21 774.075 1026.93 767.47 1027.09 767.094C1027.38 766.35 1031.27 757.872 1030.38 757.381C1029.91 757.119 1027.86 753.665 1024.08 749.667C1020.05 745.229 1014.82 741.643 1008.81 739.2C994.962 733.967 989.032 722.056 989.032 722.056C989.032 722.056 987.773 721.26 985.721 720.214C982.171 718.351 976.467 715.671 972.25 715.221C965.64 714.531 953.364 703.321 953.364 703.321C953.364 703.321 944.966 698.831 941.668 693.105C938.52 687.642 892.037 661.099 887.731 658.65L1000.43 718.811L1027.4 733.224L1066.06 708.104L1126.92 658.262C1126.92 658.262 1118.74 657.927 1106.78 657.509C1077.2 656.462 1024.68 654.777 1018.04 656.022C1012.64 657.069 1007.07 657.369 1001.55 656.912C1001.55 656.912 986.59 657.477 976.694 653.134C966.798 648.79 951.199 646.76 949.398 643.546C947.598 640.333 894.542 624.864 894.542 624.864C894.542 624.864 822.312 592.972 796.527 611.916C770.742 630.861 770.553 648.214 774.456 656.179Z" fill="#434175"/>
<path d="M1007.35 473.287L1016.64 498.951L1028.63 556.757L1072.69 559.249L1085.45 541.665L1098.23 524.112C1098.23 524.112 1106.16 500.751 1111.86 478.154C1116.9 458.163 1120.2 438.758 1114.71 436.654C1109.85 434.78 1106.65 428.05 1104.64 420.808C1104.37 419.918 1104.13 419.007 1103.91 418.097C1102.44 411.965 1101.46 405.758 1100.98 399.519C1100.98 399.519 1008.66 395.541 1021.55 427.182C1023.85 432.587 1025.03 438.278 1025.03 444.012C1025.01 445.442 1024.91 446.871 1024.71 448.293C1024.06 453.231 1022.17 458.002 1019.19 462.304C1016.2 466.606 1012.17 470.346 1007.35 473.287Z" fill="#EE8E9E"/>
<path d="M988.163 469.048L991.462 512.652L998.953 549.777L1007.35 566.973L1014.84 661.046C1014.84 661.046 1087.12 667.996 1104.7 660.921C1105.97 660.472 1107.07 659.749 1107.88 658.828C1129.11 632.211 1122.15 555.01 1122.15 555.01L1130.24 505.158L1124.84 479.284L1111.81 478.133L1101.74 477.243C1101.74 477.243 1099.47 479.567 1096.2 483.157C1087.31 492.912 1071.02 512.097 1072.06 520.104C1073.55 531.073 1070.26 542.283 1065.17 544.03C1060.07 545.778 1055.87 548.761 1054.98 545.778C1054.09 542.795 1053.18 542.042 1054.07 537.803C1054.97 533.564 1050.17 520.606 1050.17 520.606C1050.17 520.606 1042.09 505.409 1042.62 498.93C1043.14 492.451 1041.72 484.968 1039.32 483.23C1036.91 481.493 1033.63 479.734 1036.32 471.717C1039.02 463.7 1024.5 448.22 1024.5 448.22L988.163 469.048Z" fill="#E3E8F4"/>
<path opacity="0.1" d="M1083.64 577.952L1086.63 652.464L1103.94 660.439C1105.21 659.989 1106.31 659.267 1107.13 658.346C1128.37 631.688 1121.41 554.497 1121.41 554.497L1129.5 504.655L1124.1 478.792L1111.06 477.641C1116.09 457.65 1119.39 438.245 1113.92 436.141C1109.04 434.268 1105.85 427.538 1103.77 420.295L1094.45 473.046C1094.45 473.046 1095.23 477.798 1095.51 482.696C1095.72 486.339 1095.65 490.023 1094.75 491.98C1092.65 496.47 1094.15 504.446 1094.15 504.446C1088.75 512.358 1086.05 527.022 1084.73 541.183C1082.96 560.013 1083.64 577.952 1083.64 577.952Z" fill="black"/>
<path d="M1104.06 419.144C1104.06 419.144 1119.16 420.703 1123.95 425.936C1128.73 431.17 1141.34 431.892 1141.34 431.892C1141.34 431.892 1155.73 435.88 1155.42 436.874C1155.12 437.868 1159.62 439.375 1168.62 441.364C1177.62 443.353 1192.54 450.585 1192.54 452.333C1192.54 454.081 1216.22 473.507 1216.22 475.506C1216.22 477.505 1223.42 484.926 1222.52 498.176C1221.61 511.427 1220.72 528.079 1224.32 530.822C1227.92 533.564 1224.32 544.282 1224.32 544.282C1223.36 545.454 1222.84 546.831 1222.8 548.246C1222.77 549.661 1223.23 551.055 1224.13 552.257C1227.13 556.747 1223.54 575.441 1223.54 575.441L1223.83 594.877C1223.83 594.877 1220.53 607.081 1224.43 607.583C1228.34 608.086 1223.83 613.56 1223.83 613.56C1223.83 613.56 1220.53 623.534 1224.73 628.014C1228.94 632.494 1230.12 651.689 1230.12 651.689L1294.33 729.142C1294.33 729.142 1295.24 743.345 1274.86 743.094C1254.47 742.842 1254.71 746.338 1255.37 749.573C1256.02 752.807 1249.68 756.302 1249.68 756.302C1249.68 756.302 1241.58 759.788 1246.38 764.027C1251.17 768.266 1264.96 777.979 1242.18 784.457C1239.49 781.38 1237.27 778.033 1235.59 774.493C1233.65 770.097 1232.05 765.605 1230.79 761.044C1230.79 761.044 1228.69 742.099 1224.5 739.608C1220.3 737.117 1220.89 725.154 1220.89 725.154C1220.89 725.154 1226.89 715.441 1218.5 711.453C1210.12 707.466 1088.28 651.449 1088.28 651.449L1085.28 576.937C1085.28 576.937 1083.18 521.873 1095.77 503.431C1095.77 503.431 1094.27 495.455 1096.38 490.975C1098.48 486.496 1096.07 472.031 1096.07 472.031L1104.06 419.144Z" fill="#565387"/>
<path opacity="0.1" d="M1025.49 449.036C1025.49 449.036 995.365 443.876 987.27 447.361C979.174 450.847 963.348 453.641 960.83 455.588C958.312 457.535 952.432 456.09 947.043 467.802C941.655 479.514 941.038 491.467 934.151 496.952C927.264 502.436 923.663 506.173 923.361 510.161C923.059 514.148 924.255 515.143 921.561 516.44C918.866 517.738 914.963 522.919 916.159 524.918C917.355 526.917 978.62 570.709 978.62 570.709C978.62 570.709 981.629 587.456 984.324 591.643C987.018 595.829 981.327 654.191 975.334 658.178C969.341 662.166 1015.8 661.8 1015.8 661.8C1015.8 661.8 1017.89 623.545 1019.69 621.545C1021.49 619.546 1018.43 578.633 1018.43 578.633C1018.43 578.633 1018.13 543.748 1022.03 534.527C1025.93 525.306 1025.49 494.691 1025.49 494.691C1025.49 494.691 1028.94 476.301 1033.14 472.01C1037.33 467.719 1025.49 449.036 1025.49 449.036Z" fill="black"/>
<path d="M1024.6 448.293C1024.6 448.293 994.458 443.133 986.362 446.618C978.267 450.104 962.441 452.846 959.986 454.845C957.531 456.844 951.601 455.337 946.136 467.049C940.672 478.761 940.143 490.724 933.244 496.209C926.344 501.693 922.756 505.43 922.454 509.417C922.152 513.405 923.36 514.4 920.666 515.645C917.972 516.891 914.069 522.124 915.265 524.112C916.461 526.101 977.612 569.966 977.612 569.966C977.612 569.966 980.609 586.713 983.303 590.899C985.997 595.086 980.307 653.437 974.314 657.425C968.321 661.413 1014.78 661.046 1014.78 661.046C1014.78 661.046 1016.88 622.791 1018.68 620.802C1020.48 618.814 1017.42 577.89 1017.42 577.89C1017.42 577.89 1017.13 543.005 1021.02 533.784C1024.91 524.562 1024.49 493.906 1024.49 493.906C1024.49 493.906 1027.94 475.516 1032.12 471.235C1036.3 466.955 1024.6 448.293 1024.6 448.293Z" fill="#565387"/>
<path opacity="0.1" d="M1021.43 427.182C1023.73 432.587 1024.9 438.278 1024.9 444.012C1039.64 447.642 1055.42 447.062 1069.72 442.365C1084.02 437.667 1096.01 429.123 1103.78 418.097C1102.31 411.965 1101.34 405.758 1100.86 399.519C1100.86 399.519 1008.55 395.541 1021.43 427.182Z" fill="black"/>
<path d="M975.874 387.807C975.89 402.424 982.652 416.479 994.768 427.073C1006.88 437.667 1023.43 443.992 1040.99 444.744C1058.55 445.496 1075.78 440.617 1089.14 431.113C1102.5 421.609 1110.97 408.206 1112.79 393.667C1114.61 379.128 1109.65 364.563 1098.93 352.974C1088.22 341.386 1072.56 333.659 1055.19 331.386C1037.82 329.114 1020.06 332.469 1005.58 340.76C991.1 349.052 980.998 361.647 977.36 375.948C976.368 379.847 975.87 383.821 975.874 387.807Z" fill="#EE8E9E"/>
<path d="M931.808 519.874L915.327 524.112C915.327 524.112 916.826 529.095 912.029 531.586C907.232 534.077 907.836 539.069 907.836 539.069C907.836 539.069 906.036 544.543 901.843 545.789C897.651 547.034 894.944 555.209 894.944 555.209L881.157 568.417C881.157 568.417 876.058 571.903 876.965 573.651C877.871 575.399 871.563 575.891 871.563 575.891L874.862 620.29L903.341 624.78L920.968 623.283L935.359 618.793L947.949 612.513L953.69 600.403L978.871 568.512L931.808 519.874Z" fill="#565387"/>
<path d="M875.756 579.47C875.756 579.47 839.244 535.605 811.911 559.28C784.577 582.956 823.003 621.326 831.992 620.08C840.982 618.835 883.852 616.846 883.852 616.846L875.756 579.47Z" fill="#EE8E9E"/>
<path d="M833.971 548.907L800.146 574.27C793.63 579.156 793.112 587.508 798.99 592.925L836.566 627.557C842.443 632.974 852.49 633.405 859.006 628.519L892.831 603.155C899.348 598.269 899.865 589.917 893.988 584.5L856.412 549.868C850.534 544.451 840.487 544.021 833.971 548.907Z" fill="#30374E"/>
<path opacity="0.1" d="M833.971 548.907L800.146 574.27C793.63 579.156 793.112 587.508 798.99 592.925L836.566 627.557C842.443 632.974 852.49 633.405 859.006 628.519L892.831 603.155C899.348 598.269 899.865 589.917 893.988 584.5L856.412 549.868C850.534 544.451 840.487 544.021 833.971 548.907Z" fill="black"/>
<path d="M835.001 545.294L801.177 570.657C794.66 575.543 794.143 583.896 800.02 589.313L837.596 623.945C843.474 629.362 853.521 629.792 860.037 624.906L893.862 599.543C900.378 594.657 900.896 586.305 895.018 580.888L857.442 546.256C851.565 540.839 841.518 540.408 835.001 545.294Z" fill="#30374E"/>
<path d="M846.56 601.104C855.996 601.104 863.645 594.746 863.645 586.901C863.645 579.057 855.996 572.698 846.56 572.698C837.124 572.698 829.475 579.057 829.475 586.901C829.475 594.746 837.124 601.104 846.56 601.104Z" fill="#6C63FF"/>
<path opacity="0.1" d="M846.56 601.104C855.996 601.104 863.645 594.746 863.645 586.901C863.645 579.057 855.996 572.698 846.56 572.698C837.124 572.698 829.475 579.057 829.475 586.901C829.475 594.746 837.124 601.104 846.56 601.104Z" fill="black"/>
<path d="M847.517 599.304C856.952 599.304 864.602 592.945 864.602 585.101C864.602 577.257 856.952 570.898 847.517 570.898C838.081 570.898 830.432 577.257 830.432 585.101C830.432 592.945 838.081 599.304 847.517 599.304Z" fill="#6C63FF"/>
<path d="M852.087 588.649C851.785 621.545 933.622 628.516 933.622 628.516L954.522 631.279L963.889 632.514L967.792 600.403C967.792 600.403 963.498 599.869 958.135 598.833C950.216 597.294 939.955 594.646 937.802 590.931C934.213 584.703 852.376 555.763 852.087 588.649Z" fill="#EE8E9E"/>
<path opacity="0.1" d="M977.36 375.948C979.248 376.064 981.029 376.722 982.396 377.811C984.713 379.852 984.839 383.473 987.848 384.729C988.973 385.136 990.217 385.256 991.424 385.075C999.393 384.133 1004.01 376.702 1011.66 374.608C1016.01 373.436 1020.81 374.2 1025.07 375.561C1026.78 376.006 1028.31 376.827 1029.51 377.937C1032.03 380.689 1030.28 384.74 1031.46 388.079C1033.11 392.705 1039.76 394.547 1045.51 395.154C1051.27 395.761 1057.75 396.096 1061.59 399.707C1064.31 402.271 1065 405.987 1064.45 409.347C1064.11 410.52 1064.11 411.743 1064.45 412.916C1066.03 416.652 1073.81 416.056 1075.84 413.146C1077.33 411 1076.87 409.221 1080.37 408.625C1082.74 408.216 1085.52 409.043 1087.71 409.671C1093.82 411.421 1100.25 412.244 1106.7 412.099C1110.78 404.819 1112.97 396.905 1113.11 388.874C1113.26 380.844 1111.37 372.878 1107.56 365.496C1103.75 358.115 1098.11 351.486 1091.01 346.041C1083.91 340.596 1075.51 336.458 1066.35 333.899C1057.19 331.339 1047.49 330.415 1037.87 331.187C1028.25 331.959 1018.94 334.409 1010.54 338.378C1002.14 342.347 994.845 347.745 989.127 354.219C983.41 360.693 979.4 368.097 977.36 375.948Z" fill="black"/>
<path d="M1064.41 411.409C1064.07 410.236 1064.07 409.012 1064.41 407.839C1064.95 404.459 1064.27 400.754 1061.55 398.2C1057.78 394.589 1051.23 394.243 1045.47 393.647C1039.72 393.05 1033.07 391.208 1031.42 386.582C1030.24 383.243 1032.03 379.182 1029.47 376.429C1028.28 375.32 1026.75 374.502 1025.04 374.064C1020.77 372.693 1015.98 371.971 1011.62 373.101C1003.98 375.194 999.356 382.646 991.386 383.568C990.18 383.749 988.935 383.629 987.811 383.222C984.802 381.966 984.676 378.345 982.359 376.314C978.72 373.111 971.808 375.173 967.351 372.797C964.443 371.238 963.323 368.213 962.517 365.419C960.93 359.997 959.659 354.314 961.182 348.892C963.788 339.619 973.773 333.265 980.068 325.353C985.998 317.974 989.322 308.606 998.236 303.75C1007.15 298.893 1018.59 299.971 1028.64 302.452C1033.35 303.614 1038.01 305.058 1042.88 305.592C1050.99 306.419 1059.12 304.545 1067.28 304.357C1078.8 304.047 1090.13 306.906 1099.5 312.489C1101.61 313.639 1103.4 315.148 1104.76 316.917C1106.39 319.303 1106.6 322.15 1107.09 324.85C1108.04 330.001 1110.18 334.951 1113.39 339.43C1115.9 342.936 1119.06 346.118 1121.34 349.74C1123.62 353.361 1124.96 357.642 1123.5 361.535C1122.73 363.629 1121.21 365.439 1120.64 367.543C1119.3 372.41 1123.16 377.057 1125.79 381.547C1128.34 385.643 1129.54 390.224 1129.29 394.83C1129.14 397.123 1128.43 399.366 1127.19 401.421C1125.96 403.475 1124.23 405.297 1122.11 406.772C1117.87 409.535 1112.29 410.456 1106.92 410.603C1100.34 410.787 1093.77 409.968 1087.55 408.185C1085.35 407.557 1082.52 406.73 1080.21 407.138C1076.71 407.735 1077.16 409.514 1075.68 411.66C1073.76 414.59 1066 415.145 1064.41 411.409Z" fill="#434175"/>
<path opacity="0.1" d="M1027.43 733.182L1066.1 708.062L1126.96 658.22C1126.96 658.22 1118.77 657.885 1106.81 657.467C1104.64 659.309 1102.7 661.653 1102.57 664.27C1102.27 670.362 1086.12 664.699 1077.73 668.184C1069.34 671.67 1028.28 715.357 1021.07 715.075C1013.87 714.792 1008.19 712.039 1005.18 716.278C1005.12 716.376 1005.05 716.471 1004.97 716.561C1003.77 717.696 1002.17 718.485 1000.4 718.811L1027.43 733.182Z" fill="black"/>
<path d="M949.498 731.434L968.925 782.992L971.972 791.093L981.226 789L1001.62 784.342L1092.47 763.598C1092.47 763.598 1109.55 763.409 1125.21 756.344C1142.52 748.515 1162.05 744.58 1181.66 746.108C1193.67 747.04 1207.03 742.738 1218.18 725.719C1218.18 725.719 1243.36 663.967 1179.8 646.173C1116.24 628.38 1113.22 655.593 1113.22 655.593C1113.22 655.593 1112.89 655.74 1112.37 656.033C1109.85 657.341 1102.99 661.455 1102.73 666.5C1102.43 672.591 1086.28 666.918 1077.89 670.404C1069.51 673.889 1028.44 717.587 1021.24 717.304C1014.04 717.022 1008.36 714.269 1005.35 718.508C1005.35 718.602 1005.21 718.686 1005.13 718.78C1002.92 721.323 996.246 721.92 991.827 722.014C989.422 722.077 987.672 722.014 987.672 722.014L987.105 722.161L982.397 723.249L949.498 731.434Z" fill="#434175"/>
<path opacity="0.1" d="M954.521 631.279L963.888 632.514L967.791 600.403C967.791 600.403 963.497 599.869 958.134 598.833C959.557 603.281 956.334 620.624 954.521 631.279Z" fill="black"/>
<path opacity="0.1" d="M1199.63 481.085C1199.63 481.085 1227.5 474.355 1220.61 540.147C1213.71 605.94 1162.16 647.503 1162.16 647.503C1162.16 647.503 1102.81 669.179 1076.13 665.694C1049.45 662.208 1029.98 661.507 1029.98 661.507C1021.58 657.978 1012.39 655.943 1002.99 655.531C987.999 655.028 956.536 647.304 955.932 644.813C955.327 642.322 963.725 605.689 960.124 602.947C960.124 602.947 1002.09 604.381 1006.29 606.903C1010.5 609.425 1016.48 607.615 1020.97 606.903C1025.47 606.191 1039.27 596.217 1066.54 604.946C1066.54 604.946 1075.83 605.689 1079.43 603.7C1083.03 601.712 1088.8 603.198 1088.8 603.198C1088.8 603.198 1094.45 601.45 1095.32 600.403C1096.19 599.357 1103.4 600.403 1103.4 600.403C1103.83 600.577 1104.3 600.669 1104.78 600.673C1105.25 600.676 1105.73 600.591 1106.16 600.424C1106.59 600.256 1106.97 600.01 1107.27 599.704C1107.58 599.398 1107.79 599.04 1107.91 598.655C1108.85 596.615 1110.28 594.754 1112.1 593.181C1112.1 593.181 1120.2 555.303 1135.48 541.1C1135.48 541.1 1139.98 537.855 1138.78 533.867C1137.58 529.88 1163.7 473.099 1199.63 481.085Z" fill="black"/>
<path d="M1198.95 476.018C1198.95 476.018 1226.82 469.289 1219.94 535.081C1213.05 600.874 1161.42 642.478 1161.42 642.478C1161.42 642.478 1102.07 664.155 1075.39 660.669C1048.71 657.184 1029.23 656.43 1029.23 656.43C1020.84 652.9 1011.65 650.864 1002.25 650.454C987.269 649.952 955.793 642.227 955.188 639.736C954.584 637.245 962.982 600.612 959.394 597.87C959.394 597.87 1001.36 599.304 1005.55 601.826C1009.74 604.349 1015.75 602.538 1020.24 601.826C1024.74 601.115 1038.52 591.15 1065.81 599.869C1065.81 599.869 1075.1 600.612 1078.69 598.624C1082.27 596.635 1088.07 598.121 1088.07 598.121C1088.07 598.121 1093.68 596.373 1094.58 595.379C1095.47 594.385 1102.67 595.379 1102.67 595.379C1103.1 595.553 1103.57 595.646 1104.04 595.65C1104.52 595.654 1104.99 595.57 1105.42 595.403C1105.85 595.236 1106.23 594.992 1106.53 594.687C1106.83 594.382 1107.05 594.025 1107.17 593.642C1108.11 591.598 1109.53 589.732 1111.36 588.157C1111.36 588.157 1119.45 550.279 1134.74 536.076C1134.74 536.076 1139.23 532.831 1138.04 528.854C1136.84 524.876 1162.92 468.043 1198.95 476.018Z" fill="#565387"/>
<path opacity="0.1" d="M982.396 723.249L1021.98 763.022C1022.13 762.907 1022.23 762.823 1022.23 762.792C1022.53 762.038 1026.42 753.571 1025.53 753.068C1024.64 752.566 1017.74 740.111 1003.95 734.877C995.528 731.737 990.014 725.991 987.004 722.056L982.396 723.249Z" fill="black"/>
<path opacity="0.1" d="M982.938 792.161L987.269 794.254C987.269 794.254 997.342 787.555 1007.3 780.815C1017.26 774.075 1026.98 767.47 1027.14 767.093C1027.43 766.35 1031.32 757.872 1030.43 757.38C1029.96 757.119 1027.91 753.665 1024.13 749.667C997.291 743.387 1014.38 758.909 1016.66 759.62C1016.66 759.62 983.92 753.34 982.183 782.971C981.945 786.049 982.199 789.139 982.938 792.161Z" fill="black"/>
<path d="M1016.04 804.7L1021.74 807.442L1079.66 808.687C1079.66 808.687 1092.07 814.967 1100.13 816.872C1101.08 817.118 1102.05 817.297 1103.04 817.406C1108.4 817.767 1113.78 817.851 1119.15 817.657C1123.58 817.563 1127.02 817.406 1127.02 817.406C1127.02 817.406 1124.28 756.7 1122.21 750.42C1121.23 747.364 1116.38 748.034 1111.6 749.562C1108 750.774 1104.54 752.234 1101.24 753.926C1101.24 753.926 1076.66 755.905 1072.76 757.663C1068.85 759.421 1057.77 756.616 1050.87 757.663C1043.98 758.71 1031.7 750.912 1031.7 750.912C998.121 741.701 1017.01 758.888 1019.4 759.641C1019.4 759.641 986.74 753.361 984.939 782.992C983.139 812.623 1016.04 804.7 1016.04 804.7Z" fill="#565387"/>
<path d="M1099.68 781.276C1100.31 793.835 1112.08 809.42 1119.09 817.657C1123.52 817.563 1126.96 817.406 1126.96 817.406C1126.96 817.406 1124.21 756.7 1122.15 750.42C1121.17 747.364 1116.32 748.034 1111.54 749.562C1105.78 758.563 1099.17 771.154 1099.68 781.276Z" fill="#565387"/>
<path opacity="0.1" d="M1099.68 781.276C1100.31 793.835 1112.08 809.42 1119.09 817.657C1123.52 817.563 1126.96 817.406 1126.96 817.406C1126.96 817.406 1124.21 756.7 1122.15 750.42C1121.17 747.364 1116.32 748.034 1111.54 749.562C1105.78 758.563 1099.17 771.154 1099.68 781.276Z" fill="black"/>
<path opacity="0.05" d="M1089.78 782.94C1093.76 795.06 1093.72 808.656 1100.07 816.872C1101.02 817.119 1101.99 817.297 1102.97 817.406C1108.33 817.767 1113.72 817.851 1119.09 817.657C1123.52 817.563 1126.96 817.406 1126.96 817.406C1126.96 817.406 1124.21 756.7 1122.15 750.42C1121.17 747.364 1116.32 748.034 1111.54 749.562C1107.94 750.774 1104.47 752.234 1101.17 753.927C1101.17 753.927 1084.69 767.428 1089.78 782.94Z" fill="black"/>
<path opacity="0.1" d="M890.197 660C890.197 660 918.928 667.755 943.278 695.303L890.197 660Z" fill="black"/>
<g opacity="0.1">
<path opacity="0.1" d="M1123.7 360.991C1123.65 361.168 1123.59 361.343 1123.52 361.515C1123.25 362.23 1122.91 362.929 1122.53 363.608C1122.82 362.708 1123.22 361.833 1123.7 360.991Z" fill="black"/>
<path opacity="0.1" d="M961.131 348.902C961.629 347.156 962.378 345.466 963.36 343.868C963.209 344.297 963.045 344.726 962.919 345.166C961.396 350.587 962.667 356.271 964.254 361.692C965.072 364.487 966.18 367.512 969.088 369.071C973.558 371.447 980.419 369.375 984.096 372.578C986.412 374.619 986.538 378.24 989.56 379.496C990.684 379.903 991.929 380.024 993.136 379.841C1001.09 378.899 1005.73 371.468 1013.37 369.375C1017.72 368.203 1022.51 368.967 1026.78 370.338C1028.49 370.776 1030.02 371.594 1031.21 372.703C1033.73 375.456 1031.98 379.517 1033.16 382.845C1034.81 387.472 1041.46 389.314 1047.21 389.91C1052.96 390.507 1059.45 390.852 1063.29 394.474C1066.01 397.027 1066.7 400.754 1066.15 404.113C1065.81 405.287 1065.81 406.509 1066.15 407.682C1067.73 411.419 1075.51 410.822 1077.48 407.913C1078.96 405.767 1078.52 403.988 1082.02 403.391C1084.38 402.983 1087.16 403.81 1089.35 404.438C1095.57 406.22 1102.14 407.04 1108.71 406.856C1114.09 406.699 1119.68 405.809 1123.91 403.025C1125.84 401.744 1127.43 400.139 1128.57 398.315C1127.58 401.636 1125.33 404.603 1122.15 406.772C1117.92 409.535 1112.34 410.456 1106.95 410.603C1100.38 410.788 1093.82 409.968 1087.6 408.185C1085.4 407.557 1082.56 406.73 1080.26 407.138C1076.76 407.735 1077.2 409.514 1075.73 411.66C1073.69 414.611 1065.92 415.166 1064.32 411.429C1063.99 410.256 1063.99 409.034 1064.32 407.86C1064.88 404.48 1064.2 400.774 1061.48 398.221C1057.62 394.61 1051.14 394.264 1045.39 393.668C1039.63 393.071 1032.98 391.229 1031.35 386.603C1030.15 383.264 1031.95 379.203 1029.4 376.45C1028.2 375.343 1026.66 374.525 1024.95 374.085C1020.68 372.714 1015.9 371.991 1011.54 373.122C1003.89 375.215 999.267 382.667 991.31 383.588C990.103 383.771 988.859 383.65 987.734 383.243C984.713 381.987 984.587 378.366 982.27 376.335C978.632 373.132 971.732 375.194 967.275 372.818C964.354 371.259 963.246 368.234 962.428 365.439C960.867 360.007 959.595 354.324 961.131 348.902Z" fill="black"/>
</g>
<path opacity="0.1" d="M1128.34 548.343C1122.85 554.507 1116.58 560.212 1111.72 566.732C1106.86 573.253 1103.43 580.862 1104.45 588.482C1109.48 584.191 1111.77 578.267 1114.95 572.887C1120.31 563.781 1128.34 556.057 1135.09 547.683C1136.35 546.082 1144.67 536.85 1140.48 536.411C1137.03 536.044 1130.22 546.239 1128.34 548.343Z" fill="black"/>
</g>
<defs>
<linearGradient id="paint0_linear" x1="1035.77" y1="815.888" x2="1035.77" y2="295.125" gradientUnits="userSpaceOnUse">
<stop stop-color="#808080" stop-opacity="0.25"/>
<stop offset="0.54" stop-color="#808080" stop-opacity="0.12"/>
<stop offset="1" stop-color="#808080" stop-opacity="0.1"/>
</linearGradient>
<clipPath id="clip0">
<rect width="1436" height="824" fill="white"/>
</clipPath>
</defs>
</svg>
