<svg width="859" height="613" viewBox="0 0 859 613" fill="none" xmlns="http://www.w3.org/2000/svg">
<g clip-path="url(#clip0)">
<path d="M647.376 187.873H216.558V189.893H647.376V187.873Z" fill="#191A1F"/>
<path d="M432.69 1.01147H430.563V188.881H432.69V1.01147Z" fill="#191A1F"/>
<path d="M613.047 93.9365H250.205V95.9562H613.047V93.9365Z" fill="#191A1F"/>
<path d="M500.24 333.597C500.244 343.872 496.319 353.798 489.194 361.529C488.556 362.226 487.887 362.893 487.207 363.549H423.951C423.271 362.893 422.6 362.226 421.963 361.529C417.784 357.006 414.67 351.686 412.83 345.927C412.83 345.927 412.841 345.927 412.83 345.917C411.558 341.922 410.913 337.771 410.917 333.597C410.914 331.879 411.024 330.162 411.247 328.457C412.569 318.183 417.8 308.722 425.955 301.857C434.11 294.991 444.625 291.194 455.522 291.18C466.418 291.167 476.944 294.937 485.118 301.782C493.292 308.628 498.549 318.075 499.9 328.346C500.127 330.088 500.24 331.842 500.24 333.597V333.597Z" fill="#2F2E41"/>
<path d="M399.286 363.55H393.821L398.063 361.53L398.191 361.469L398.223 361.53L399.286 363.55Z" fill="#2F2E41"/>
<path d="M436.527 363.55H431.062L432.126 361.53L432.158 361.469L432.285 361.53L436.527 363.55Z" fill="#2F2E41"/>
<path d="M452.451 337.721C460.881 337.721 467.715 331.229 467.715 323.221C467.715 315.213 460.881 308.721 452.451 308.721C444.02 308.721 437.186 315.213 437.186 323.221C437.186 331.229 444.02 337.721 452.451 337.721Z" fill="white"/>
<path d="M450.848 329.53C452.826 327.65 452.815 324.592 450.822 322.699C448.829 320.806 445.61 320.795 443.631 322.675C441.652 324.554 441.663 327.613 443.656 329.506C445.649 331.399 448.869 331.409 450.848 329.53Z" fill="#3F3D56"/>
<path d="M490.811 287.443C491.483 271.737 477.232 258.433 458.981 257.729C440.73 257.024 425.39 269.186 424.718 284.893C424.046 300.6 436.733 304.169 454.984 304.873C473.236 305.577 490.14 303.15 490.811 287.443Z" fill="#6C63FF"/>
<path d="M467.845 350.318C468.084 351.567 468.062 352.849 467.78 354.09C467.498 355.331 466.962 356.506 466.201 357.55C465.441 358.594 464.471 359.486 463.348 360.174C462.225 360.862 460.97 361.333 459.655 361.56C458.34 361.788 456.991 361.767 455.685 361.499C454.379 361.231 453.141 360.721 452.042 359.999C450.943 359.276 450.004 358.356 449.28 357.289C448.556 356.222 448.06 355.03 447.821 353.781L447.817 353.762C446.816 348.509 451.092 346.65 456.622 345.699C462.153 344.748 466.844 345.065 467.845 350.318Z" fill="white"/>
<path d="M687.838 361.528H164.784C159.708 361.528 154.841 363.443 151.252 366.852C147.664 370.261 145.647 374.884 145.647 379.705C145.647 384.526 147.664 389.15 151.252 392.559C154.841 395.967 159.708 397.883 164.784 397.883H687.838C692.913 397.883 697.781 395.967 701.369 392.559C704.958 389.15 706.974 384.526 706.974 379.705C706.974 374.884 704.958 370.261 701.369 366.852C697.781 363.443 692.913 361.528 687.838 361.528V361.528Z" fill="#CCCCCC"/>
<path d="M648.503 206.01V362.538H646.376V206.01C646.376 200.587 646.153 195.215 645.707 189.893C645.653 189.216 645.6 188.55 645.536 187.873C642.491 155.132 631.107 123.587 612.367 95.9564C611.91 95.2797 611.453 94.6132 610.985 93.9366C591.542 65.8459 565.09 42.756 533.984 26.7214C502.877 10.6868 468.08 2.20468 432.689 2.02982C432.338 2.01972 431.977 2.01971 431.626 2.01971C431.275 2.01971 430.914 2.01972 430.563 2.02982C426.534 2.03992 422.537 2.1611 418.571 2.39336C403.033 3.27469 387.642 5.77045 372.676 9.83599C364.198 12.1356 355.879 14.935 347.768 18.2178C308.809 34.0193 275.599 60.3503 252.267 93.9366C251.8 94.6132 251.342 95.2797 250.886 95.9564C232.145 123.587 220.761 155.132 217.716 187.873C217.652 188.55 217.599 189.216 217.546 189.893C217.099 195.215 216.876 200.587 216.876 206.01V362.538H214.75V206.01C214.75 199.87 215.03 193.801 215.59 187.803C218.685 154.242 230.463 121.929 249.875 93.7347C278.727 51.5736 322.804 20.8812 373.814 7.43253C388.746 3.50908 404.08 1.12554 419.549 0.323161C423.546 0.111091 427.572 0.00336618 431.626 0C485.821 0.0516037 538.036 19.3539 578.011 54.114C617.986 88.8741 642.831 136.578 647.663 187.853C648.215 193.831 648.495 199.884 648.503 206.01Z" fill="#3F3D56"/>
<path d="M371.704 507.022C431.889 507.998 431.88 593.037 371.702 594.005C311.519 593.029 311.528 507.99 371.704 507.022Z" fill="#2F2E41"/>
<path d="M364.749 584.646H350.84V608.319H364.749V584.646Z" fill="#2F2E41"/>
<path d="M392.569 584.646H378.659V608.319H392.569V584.646Z" fill="#2F2E41"/>
<path d="M362.431 604.465C377.461 604.364 377.461 612.825 362.43 612.723C347.401 612.825 347.401 604.363 362.431 604.465Z" fill="#2F2E41"/>
<path d="M390.25 603.915C405.28 603.813 405.28 612.275 390.25 612.173C375.22 612.274 375.22 603.813 390.25 603.915Z" fill="#2F2E41"/>
<path d="M372.864 524.639C393.328 524.726 393.327 554.283 372.863 554.367C352.399 554.28 352.401 524.723 372.864 524.639Z" fill="white"/>
<path d="M372.863 534.548C379.631 534.454 379.631 544.552 372.862 544.458C366.095 544.551 366.095 534.453 372.863 534.548Z" fill="#3F3D56"/>
<path d="M327.29 510.067C318.688 472.812 384.58 458.843 393.47 496.032C397.166 511.758 385.055 517.558 366.78 521.434C348.505 525.311 330.987 525.795 327.29 510.067Z" fill="#CCCCCC"/>
<path d="M391.662 390.264C402.328 363.731 415.773 368.613 405.088 395.139C394.423 421.671 380.978 416.789 391.662 390.264Z" fill="#2F2E41"/>
<path d="M310.861 418.577C321.516 362.302 409.883 375.932 401.25 432.512C390.595 488.785 302.228 475.155 310.861 418.577Z" fill="#2F2E41"/>
<path d="M349.101 459.677H335.191V483.349H349.101V459.677Z" fill="#2F2E41"/>
<path d="M376.92 459.677H363.011V483.349H376.92V459.677Z" fill="#2F2E41"/>
<path d="M346.782 479.495C361.812 479.394 361.812 487.855 346.782 487.753C331.752 487.855 331.752 479.393 346.782 479.495Z" fill="#2F2E41"/>
<path d="M374.602 478.945C389.632 478.843 389.632 487.305 374.601 487.203C359.572 487.304 359.572 478.843 374.602 478.945Z" fill="#2F2E41"/>
<path d="M311.643 385.097C303.041 347.842 368.932 333.873 377.822 371.062C381.519 386.788 369.408 392.588 351.133 396.464C332.858 400.341 315.34 400.825 311.643 385.097Z" fill="#6C63FF"/>
<path d="M283.801 396.044C287.037 387.773 329.869 407.07 325.169 414.683C321.934 422.953 279.102 403.657 283.801 396.044Z" fill="#2F2E41"/>
<path d="M516.557 365.913C519.495 363.517 515.364 354.369 507.33 345.48C499.296 336.59 490.402 331.326 487.464 333.722C484.526 336.117 488.657 345.266 496.691 354.155C504.725 363.045 513.619 368.309 516.557 365.913Z" fill="#2F2E41"/>
<path d="M414.589 354.155C422.622 345.266 426.754 336.118 423.816 333.722C420.878 331.326 411.984 336.59 403.95 345.48C395.916 354.369 391.785 363.518 394.723 365.913C397.661 368.309 406.555 363.045 414.589 354.155Z" fill="#2F2E41"/>
<path d="M811.16 137.342H748.436C745.616 137.342 742.912 136.278 740.919 134.384C738.925 132.49 737.805 129.922 737.805 127.243C737.805 124.565 738.925 121.996 740.919 120.103C742.912 118.209 745.616 117.145 748.436 117.145V119.164C746.18 119.164 744.017 120.016 742.422 121.531C740.827 123.046 739.931 125.101 739.931 127.243C739.931 129.386 740.827 131.441 742.422 132.956C744.017 134.471 746.18 135.322 748.436 135.322H811.16V137.342Z" fill="#191A1F"/>
<path d="M746.309 190.864H683.585C680.766 190.864 678.062 189.8 676.068 187.906C674.074 186.012 672.954 183.444 672.954 180.766C672.954 178.087 674.074 175.519 676.068 173.625C678.062 171.731 680.766 170.667 683.585 170.667V172.687C681.33 172.687 679.166 173.538 677.571 175.053C675.976 176.568 675.08 178.623 675.08 180.766C675.08 182.908 675.976 184.963 677.571 186.478C679.166 187.993 681.33 188.844 683.585 188.844H746.309V190.864Z" fill="#191A1F"/>
<path d="M828.169 243.377V241.357C830.425 241.357 832.588 240.506 834.183 238.991C835.778 237.475 836.674 235.421 836.674 233.278C836.674 231.135 835.778 229.08 834.183 227.565C832.588 226.05 830.425 225.199 828.169 225.199H765.445V223.179H828.169C830.989 223.179 833.693 224.243 835.687 226.137C837.68 228.031 838.801 230.6 838.801 233.278C838.801 235.956 837.68 238.525 835.687 240.419C833.693 242.313 830.989 243.377 828.169 243.377V243.377Z" fill="#191A1F"/>
<path d="M848.369 59.5831V57.5634C850.624 57.5634 852.788 56.7122 854.383 55.1971C855.978 53.6821 856.874 51.6272 856.874 49.4845C856.874 47.3419 855.978 45.287 854.383 43.7719C852.788 42.2568 850.624 41.4057 848.369 41.4057H785.645V39.386H848.369C851.188 39.386 853.892 40.4499 855.886 42.3438C857.88 44.2376 859 46.8062 859 49.4845C859 52.1628 857.88 54.7314 855.886 56.6253C853.892 58.5191 851.188 59.5831 848.369 59.5831Z" fill="#191A1F"/>
<path d="M750.561 78.7703H687.837C685.018 78.7703 682.314 77.7064 680.32 75.8125C678.326 73.9187 677.206 71.3501 677.206 68.6718C677.206 65.9935 678.326 63.4249 680.32 61.531C682.314 59.6372 685.018 58.5732 687.837 58.5732V60.593C685.582 60.593 683.418 61.4441 681.823 62.9592C680.228 64.4743 679.332 66.5291 679.332 68.6718C679.332 70.8144 680.228 72.8693 681.823 74.3844C683.418 75.8995 685.582 76.7506 687.837 76.7506H750.561V78.7703Z" fill="#191A1F"/>
<path d="M138.206 270.643H75.4818C72.6622 270.643 69.9581 269.579 67.9644 267.685C65.9706 265.791 64.8506 263.222 64.8506 260.544C64.8506 257.866 65.9706 255.297 67.9644 253.403C69.9581 251.509 72.6622 250.446 75.4818 250.446V252.465C73.2261 252.465 71.0628 253.316 69.4679 254.831C67.8729 256.347 66.9768 258.401 66.9768 260.544C66.9768 262.687 67.8729 264.742 69.4679 266.257C71.0628 267.772 73.2261 268.623 75.4818 268.623H138.206V270.643Z" fill="#191A1F"/>
<path d="M171.162 304.978V302.958C173.418 302.958 175.581 302.107 177.176 300.592C178.771 299.077 179.667 297.022 179.667 294.879C179.667 292.736 178.771 290.682 177.176 289.166C175.581 287.651 173.418 286.8 171.162 286.8H108.438V284.781H171.162C173.982 284.781 176.686 285.844 178.68 287.738C180.674 289.632 181.794 292.201 181.794 294.879C181.794 297.557 180.674 300.126 178.68 302.02C176.686 303.914 173.982 304.978 171.162 304.978V304.978Z" fill="#191A1F"/>
<path d="M73.3552 324.165H10.6312C7.81162 324.165 5.10753 323.101 3.11379 321.207C1.12006 319.313 0 316.745 0 314.066C0 311.388 1.12006 308.819 3.11379 306.926C5.10753 305.032 7.81162 303.968 10.6312 303.968V305.987C8.37553 305.987 6.21226 306.839 4.61727 308.354C3.02229 309.869 2.12624 311.924 2.12624 314.066C2.12624 316.209 3.02229 318.264 4.61727 319.779C6.21226 321.294 8.37553 322.145 10.6312 322.145H73.3552V324.165Z" fill="#191A1F"/>
<path d="M142.458 158.549H79.7337C76.9142 158.549 74.2101 157.485 72.2163 155.591C70.2226 153.697 69.1025 151.129 69.1025 148.45C69.1025 145.772 70.2226 143.203 72.2163 141.31C74.2101 139.416 76.9142 138.352 79.7337 138.352V140.372C77.4781 140.372 75.3148 141.223 73.7198 142.738C72.1248 144.253 71.2288 146.308 71.2288 148.45C71.2288 150.593 72.1248 152.648 73.7198 154.163C75.3148 155.678 77.4781 156.529 79.7337 156.529H142.458V158.549Z" fill="#191A1F"/>
<path d="M175.414 192.884V190.864C177.67 190.864 179.833 190.013 181.428 188.498C183.023 186.983 183.919 184.928 183.919 182.785C183.919 180.643 183.023 178.588 181.428 177.073C179.833 175.558 177.67 174.706 175.414 174.706H112.69V172.687H175.414C178.234 172.687 180.938 173.751 182.932 175.645C184.926 177.538 186.046 180.107 186.046 182.785C186.046 185.464 184.926 188.032 182.932 189.926C180.938 191.82 178.234 192.884 175.414 192.884V192.884Z" fill="#191A1F"/>
<path d="M77.6081 212.071H14.8841C12.0646 212.071 9.36046 211.007 7.36672 209.113C5.37299 207.219 4.25293 204.651 4.25293 201.973C4.25293 199.294 5.37299 196.726 7.36672 194.832C9.36046 192.938 12.0646 191.874 14.8841 191.874V193.894C12.6285 193.894 10.4652 194.745 8.8702 196.26C7.27522 197.775 6.37917 199.83 6.37917 201.973C6.37917 204.115 7.27522 206.17 8.8702 207.685C10.4652 209.2 12.6285 210.051 14.8841 210.051H77.6081V212.071Z" fill="#191A1F"/>
<path d="M594.283 469.584H531.559C528.739 469.584 526.035 468.52 524.042 466.626C522.048 464.732 520.928 462.164 520.928 459.485C520.928 456.807 522.048 454.239 524.042 452.345C526.035 450.451 528.739 449.387 531.559 449.387V451.407C529.303 451.407 527.14 452.258 525.545 453.773C523.95 455.288 523.054 457.343 523.054 459.485C523.054 461.628 523.95 463.683 525.545 465.198C527.14 466.713 529.303 467.564 531.559 467.564H594.283V469.584Z" fill="#191A1F"/>
<path d="M664.45 524.116V522.096C666.705 522.096 668.869 521.245 670.464 519.73C672.059 518.215 672.955 516.16 672.955 514.018C672.955 511.875 672.059 509.82 670.464 508.305C668.869 506.79 666.705 505.939 664.45 505.939H601.726V503.919H664.45C667.269 503.919 669.973 504.983 671.967 506.877C673.961 508.771 675.081 511.339 675.081 514.018C675.081 516.696 673.961 519.264 671.967 521.158C669.973 523.052 667.269 524.116 664.45 524.116V524.116Z" fill="#191A1F"/>
<path d="M536.875 534.215H474.151C471.331 534.215 468.627 533.151 466.633 531.257C464.64 529.363 463.52 526.794 463.52 524.116C463.52 521.438 464.64 518.869 466.633 516.975C468.627 515.082 471.331 514.018 474.151 514.018V516.037C471.895 516.037 469.732 516.888 468.137 518.404C466.542 519.919 465.646 521.974 465.646 524.116C465.646 526.259 466.542 528.314 468.137 529.829C469.732 531.344 471.895 532.195 474.151 532.195H536.875V534.215Z" fill="#191A1F"/>
<path d="M309.368 529.165V527.146C311.623 527.146 313.786 526.294 315.381 524.779C316.976 523.264 317.873 521.209 317.873 519.067C317.873 516.924 316.976 514.869 315.381 513.354C313.786 511.839 311.623 510.988 309.368 510.988H246.644V508.968H309.368C312.187 508.968 314.891 510.032 316.885 511.926C318.879 513.82 319.999 516.389 319.999 519.067C319.999 521.745 318.879 524.314 316.885 526.208C314.891 528.101 312.187 529.165 309.368 529.165Z" fill="#191A1F"/>
<path d="M120.133 554.412H57.4085C54.589 554.412 51.8849 553.348 49.8911 551.454C47.8974 549.56 46.7773 546.991 46.7773 544.313C46.7773 541.635 47.8974 539.066 49.8911 537.172C51.8849 535.279 54.589 534.215 57.4085 534.215V536.234C55.1529 536.234 52.9896 537.085 51.3946 538.601C49.7996 540.116 48.9036 542.171 48.9036 544.313C48.9036 546.456 49.7996 548.511 51.3946 550.026C52.9896 551.541 55.1529 552.392 57.4085 552.392H120.133V554.412Z" fill="#191A1F"/>
<path d="M543.132 612.983H138.084C137.802 612.983 137.531 612.877 137.332 612.688C137.132 612.498 137.021 612.241 137.021 611.973C137.021 611.706 137.132 611.449 137.332 611.259C137.531 611.07 137.802 610.964 138.084 610.964H543.132C543.414 610.964 543.684 611.07 543.884 611.259C544.083 611.449 544.195 611.706 544.195 611.973C544.195 612.241 544.083 612.498 543.884 612.688C543.684 612.877 543.414 612.983 543.132 612.983Z" fill="#3F3D56"/>
<path d="M198.304 612.206C197.484 613.993 194.742 612.448 195.55 610.681C199.307 602.324 201.871 593.528 203.172 584.526C205.386 569.082 204.136 553.368 199.505 538.416C199.334 537.88 199.164 537.335 198.994 536.8C198.59 535.568 198.165 534.336 197.718 533.124C192.627 519.019 184.404 506.118 173.607 495.295C172.193 493.881 174.447 491.74 175.861 493.154C182.703 499.957 188.546 507.606 193.232 515.896C195.471 519.843 197.452 523.917 199.164 528.095C199.834 529.721 200.461 531.367 201.057 533.013C204.54 542.822 206.618 553.033 207.234 563.369C208.275 580.085 205.218 596.802 198.304 612.206Z" fill="#3F3D56"/>
<path d="M222.649 457.87C219.109 470.18 215.572 482.49 212.039 494.8C208.371 507.544 204.711 520.282 201.057 533.013C200.536 534.821 200.019 536.621 199.505 538.416C199.335 537.88 199.164 537.335 198.995 536.8C198.59 535.568 198.165 534.336 197.719 533.124C198.197 531.448 198.675 529.771 199.164 528.095C199.824 525.803 200.483 523.51 201.142 521.218C207.287 499.829 213.432 478.444 219.577 457.062C219.7 456.686 219.972 456.371 220.336 456.183C220.699 455.995 221.125 455.949 221.524 456.053C221.923 456.158 222.264 456.407 222.474 456.745C222.684 457.084 222.746 457.487 222.649 457.87V457.87Z" fill="#3F3D56"/>
<path d="M157.069 462.281C155.21 466.156 153.334 470.079 152.53 474.268C151.725 478.456 152.092 483.005 154.477 486.61C156.505 489.365 159.214 491.605 162.366 493.133C166.817 495.544 172.605 497.248 176.862 494.538C181.161 491.802 181.618 485.619 179.21 481.267C176.801 476.916 172.325 473.998 167.96 471.358C163.594 468.718 160.173 466.63 157.342 462.515L157.069 462.281Z" fill="#6C63FF"/>
<path d="M232.818 422.806C228.56 424.134 224.252 425.485 220.465 427.762C216.678 430.039 213.406 433.379 212.232 437.488C211.475 440.772 211.578 444.182 212.532 447.419C213.683 452.162 216.288 457.359 221.27 458.495C226.303 459.643 231.398 455.77 233.133 451.138C234.868 446.507 234.093 441.403 233.177 436.565C232.261 431.726 231.557 427.922 232.823 423.155L232.818 422.806Z" fill="#6C63FF"/>
<path d="M156.401 510.231C157.584 514.337 158.788 518.492 160.993 522.199C163.197 525.906 166.544 529.178 170.806 530.497C174.221 531.38 177.811 531.453 181.263 530.711C186.307 529.856 191.902 527.645 193.346 522.976C194.805 518.259 190.989 513.231 186.206 511.353C181.423 509.475 176.018 509.954 170.885 510.581C165.752 511.207 161.717 511.684 156.768 510.244L156.401 510.231Z" fill="#6C63FF"/>
<path d="M169.159 563.753C170.342 567.86 171.546 572.014 173.75 575.721C175.955 579.428 179.302 582.7 183.564 584.019C186.978 584.902 190.569 584.976 194.021 584.233C199.065 583.378 204.66 581.168 206.104 576.498C207.563 571.781 203.747 566.753 198.964 564.875C194.181 562.997 188.776 563.476 183.643 564.103C178.51 564.729 174.475 565.206 169.526 563.766L169.159 563.753Z" fill="#6C63FF"/>
<path d="M239.078 528.408C237.895 532.515 236.692 536.67 234.487 540.377C232.283 544.083 228.935 547.355 224.674 548.674C221.259 549.557 217.668 549.631 214.217 548.888C209.172 548.034 203.578 545.823 202.133 541.153C200.675 536.436 204.491 531.408 209.274 529.53C214.057 527.652 219.462 528.132 224.595 528.758C229.728 529.385 233.763 529.862 238.711 528.422L239.078 528.408Z" fill="#6C63FF"/>
<path d="M251.836 473.876C250.653 477.983 249.45 482.137 247.245 485.844C245.04 489.551 241.693 492.823 237.432 494.142C234.017 495.025 230.426 495.099 226.975 494.356C221.93 493.501 216.336 491.291 214.891 486.621C213.432 481.904 217.249 476.876 222.032 474.998C226.814 473.12 232.219 473.599 237.352 474.226C242.486 474.852 246.521 475.329 251.469 473.889L251.836 473.876Z" fill="#6C63FF"/>
</g>
<defs>
<clipPath id="clip0">
<rect width="859" height="613" fill="white"/>
</clipPath>
</defs>
</svg>
