<svg width="18" height="18" viewBox="0 0 18 18" fill="none" xmlns="http://www.w3.org/2000/svg">
<g opacity="0.5">
<path fill-rule="evenodd" clip-rule="evenodd" d="M2.25 2.25C2.25 1.65326 2.48705 1.08097 2.90901 0.65901C3.33097 0.237053 3.90326 0 4.5 0L13.5 0C14.0967 0 14.669 0.237053 15.091 0.65901C15.5129 1.08097 15.75 1.65326 15.75 2.25V15.75C15.75 15.75 15.2437 16.1471 14.625 15.4744C13.6643 14.4281 11.9509 13.5 9 13.5C6.04913 13.5 4.33575 14.4292 3.375 15.4744C2.75625 16.1471 2.25 15.75 2.25 15.75V2.25ZM7.3125 2.25C7.16332 2.25 7.02024 2.30926 6.91475 2.41475C6.80926 2.52024 6.75 2.66332 6.75 2.8125C6.75 2.96168 6.80926 3.10476 6.91475 3.21025C7.02024 3.31574 7.16332 3.375 7.3125 3.375H10.6875C10.8367 3.375 10.9798 3.31574 11.0852 3.21025C11.1907 3.10476 11.25 2.96168 11.25 2.8125C11.25 2.66332 11.1907 2.52024 11.0852 2.41475C10.9798 2.30926 10.8367 2.25 10.6875 2.25H7.3125ZM9 12.375C9.89511 12.375 10.7536 12.0194 11.3865 11.3865C12.0194 10.7536 12.375 9.89511 12.375 9C12.375 8.10489 12.0194 7.24645 11.3865 6.61351C10.7536 5.98058 9.89511 5.625 9 5.625C8.10489 5.625 7.24645 5.98058 6.61351 6.61351C5.98058 7.24645 5.625 8.10489 5.625 9C5.625 9.89511 5.98058 10.7536 6.61351 11.3865C7.24645 12.0194 8.10489 12.375 9 12.375Z" fill="white"/>
<path fill-rule="evenodd" clip-rule="evenodd" d="M4.5 1.125C4.20163 1.125 3.91548 1.24353 3.7045 1.4545C3.49353 1.66548 3.375 1.95163 3.375 2.25V15.75C3.375 16.0484 3.49353 16.3345 3.7045 16.5455C3.91548 16.7565 4.20163 16.875 4.5 16.875H13.5C13.7984 16.875 14.0845 16.7565 14.2955 16.5455C14.5065 16.3345 14.625 16.0484 14.625 15.75V2.25C14.625 1.95163 14.5065 1.66548 14.2955 1.4545C14.0845 1.24353 13.7984 1.125 13.5 1.125H4.5ZM2.25 2.25C2.25 1.65326 2.48705 1.08097 2.90901 0.65901C3.33097 0.237053 3.90326 0 4.5 0L13.5 0C14.0967 0 14.669 0.237053 15.091 0.65901C15.5129 1.08097 15.75 1.65326 15.75 2.25V15.75C15.75 16.3467 15.5129 16.919 15.091 17.341C14.669 17.7629 14.0967 18 13.5 18H4.5C3.90326 18 3.33097 17.7629 2.90901 17.341C2.48705 16.919 2.25 16.3467 2.25 15.75V2.25Z" fill="white"/>
</g>
</svg>
