<svg width="552" height="359" viewBox="0 0 552 359" fill="none" xmlns="http://www.w3.org/2000/svg">
<path d="M267.237 0.805921C257.087 1.78717 240.593 7.1582 228.781 13.3039C219.375 18.2102 211.806 24.3043 204.368 33.0839L199.687 38.6615V36.9056C199.687 35.9243 199.425 34.7881 199.118 34.3233C198.156 32.8256 196.8 34.1168 194.7 38.3516C193.606 40.5723 192.556 42.6381 192.337 42.948C192.031 43.3612 190.456 43.3095 186.737 42.7931C183.893 42.3799 180.918 42.1734 180.131 42.3799C178.862 42.6382 178.687 42.8964 178.687 44.2391C178.687 45.3753 179.431 46.7181 181.575 49.6618C183.15 51.7793 184.375 53.6901 184.243 53.7934C184.156 53.9483 177.681 51.9342 169.893 49.352C162.106 46.7697 151.868 43.3612 147.187 41.8118C135.462 37.8868 120.937 33.7036 114.375 32.3609C111.356 31.6895 108.512 30.9664 108.031 30.7599C107.331 30.3983 90.3997 29.1589 86.7247 29.2105C86.2872 29.2105 85.9372 29.572 85.9372 29.9852C85.9372 30.3983 86.1997 30.7599 86.5497 30.7599C90.2684 30.7599 105.931 31.896 107.593 32.3092C108.818 32.6191 112.843 33.5487 116.562 34.4266C125.75 36.5441 136.468 39.7977 158.562 47.1829C168.8 50.5914 180.175 54.3615 183.85 55.601C188.706 57.1503 190.5 57.9766 190.5 58.5447C190.5 59.8875 189.056 64.8454 188.662 64.8454C188.443 64.8454 183.543 63.3477 177.681 61.5401C148.587 52.399 128.287 46.9247 113.281 44.1875C111.618 43.8776 109.037 43.3095 107.593 42.8964C105.406 42.2766 100.9 41.7085 83.8809 39.901C82.2184 39.746 81.4747 40.9339 83.0059 41.2954C83.5309 41.4503 88.6934 42.0184 94.4684 42.6381C100.243 43.2062 106.15 44.0326 107.593 44.4457C109.037 44.8589 113.718 45.8918 117.962 46.7697C131.612 49.4553 156.2 56.2724 180.393 63.9674C187.262 66.1365 187.437 66.6013 182.493 69.4934C179.387 71.301 177.375 71.9724 170.943 73.4184C169.237 73.7799 169.806 74.9161 171.687 74.9678C174.575 75.071 178.906 77.9115 180.743 80.9069C182.231 83.3859 182.8 83.8507 183.237 83.0243C183.587 82.3013 180.393 77.7049 178.556 76.3105C177.506 75.5358 176.587 74.7095 176.456 74.503C176.368 74.2964 177.55 73.5733 179.125 72.902C180.7 72.2822 183.412 70.7845 185.206 69.5451L188.443 67.376L188.137 69.3385C188.006 70.423 187.568 73.4701 187.218 76.1556C186.606 81.0102 185.556 83.4375 184.112 83.4375C183.806 83.4375 183.281 83.9539 183.018 84.5737C182.406 85.9164 171.906 98.0013 163.943 106.523C157.6 113.288 149.768 121.035 135.593 134.617C129.818 140.092 122.818 146.961 120.062 149.853C113.325 156.876 102.256 170.252 95.3872 179.755C88.0372 189.877 87.4684 190.807 87.9934 191.427C88.2559 191.737 89.8747 189.826 92.5434 186.107C107.725 164.726 116.475 154.759 139.312 133.016C156.812 116.335 163.068 109.88 177.068 94.128C182.056 88.4987 186.125 84.0572 186.168 84.3155C186.168 84.522 186.168 89.2734 186.125 94.7993L186.081 104.87L181.618 110.189C174.575 118.608 167.706 125.993 152.875 140.97C131.175 162.867 121.243 175.313 108.118 196.953C104.75 202.479 103.481 204.958 103.743 205.526C104.006 206.042 105.406 204.08 109.037 198.089C119.1 181.511 127.631 169.736 137.125 159.407C140.143 156.102 148.806 147.167 156.375 139.472C163.943 131.829 173.743 121.396 178.118 116.335C185.25 108.072 186.125 107.194 186.3 108.279C186.431 108.95 186.737 112.255 187 115.664C188.006 128.678 191.025 146.444 194 156.566C196.143 163.745 201.437 175.985 205.812 183.783C216.312 202.53 228.606 217.301 246.062 232.174C248.818 234.55 252.231 237.494 253.631 238.785C255.031 240.024 257.218 241.832 258.531 242.71L260.893 244.414L270.65 244.156C293.662 243.639 310.856 248.236 322.1 257.893C326.825 261.973 336.45 276.744 340.956 286.969C346.425 299.261 348.525 311.191 350.406 340.112C351.412 356.122 351.106 354.624 354.037 356.38C357.493 358.394 362.568 358.756 367.512 357.258C371.975 355.915 378.537 353.023 384.181 349.924C397.962 342.281 403.737 335.309 403.693 326.426C403.693 321.313 401.331 316.407 391.225 300.449C384.706 290.171 381.512 284.077 376.656 272.715C372.368 262.8 369.306 253.504 367.162 244.311C365.456 236.822 365.018 227.062 366.112 221.122C367.468 213.995 371.406 206.352 377.4 199.122C381.906 193.647 388.775 186.469 391.968 183.835L394.943 181.356L394.681 162.764C394.243 132.552 392.668 116.284 388.512 98.3112C381.512 68.2539 362.218 38.2483 337.762 19.2947C325.293 9.68879 314.137 4.57598 300.225 2.14868C296.462 1.4773 274.587 0.134538 271.875 0.392762C271.525 0.392762 269.425 0.599342 267.237 0.805921ZM197.981 36.6474C198.2 36.4924 198.375 37.3704 198.375 38.5582C198.375 40.2625 197.85 41.7602 196.012 45.427C194.7 48.0092 193.125 51.4694 192.512 53.1737L191.375 56.1691L189.756 55.8076C187.743 55.3944 187.656 55.3428 183.456 49.7651C179.212 44.1875 179.212 43.3612 183.456 43.9293C189.625 44.7556 192.075 44.9622 192.687 44.8072C193.037 44.7556 194.218 42.6898 195.312 40.2625C196.362 37.8352 197.325 36.0793 197.412 36.3891C197.5 36.699 197.762 36.854 197.981 36.6474Z" fill="#6C63FF"/>
<path d="M17.8186 2.56186C9.81231 4.88588 2.76856 13.4073 1.10606 22.9099C0.056058 28.9523 0.887308 35.7694 3.33731 41.2438C6.04981 47.2346 11.7373 52.554 17.4248 54.3099C20.8373 55.3944 27.9686 55.2395 31.3373 54C41.7936 50.23 48.5748 37.577 47.0436 24.924C45.7748 14.1303 39.0811 5.40232 30.0686 2.61351C27.0936 1.6839 20.9686 1.6839 17.8186 2.56186Z" fill="#423BB0"/>
<path d="M56.8869 23.9945C56.6681 24.356 57.0181 25.2856 57.6306 26.2668C61.1744 31.7928 60.9556 36.3376 56.8869 42.0701C55.7056 43.7228 55.3994 44.4974 55.7494 44.9106C56.3619 45.6336 58.7681 42.38 60.3431 38.6099C62.3556 33.8586 61.7869 29.6754 58.4619 25.1307C57.5869 23.8912 57.1056 23.5297 56.8869 23.9945Z" fill="black"/>
<path d="M65.0684 23.8911C64.7184 24.0461 64.9372 25.0273 65.6809 27.0415C67.4309 31.4829 67.4747 33.8586 65.8122 39.4878C64.0184 45.7369 64.6747 47.028 66.6872 41.2438C68.6997 35.5628 68.8747 31.9994 67.3434 27.6612C66.0309 23.9428 65.8122 23.5813 65.0684 23.8911Z" fill="black"/>
<path d="M73.0748 26.0602C72.8998 26.3185 73.2061 27.6612 73.7311 29.0556C74.2561 30.3984 74.7373 32.9806 74.8686 34.7365C75.0873 37.4737 74.9561 38.2484 73.9498 40.3142C73.2498 41.8119 72.9436 43.0513 73.1623 43.4645C73.4248 43.9809 73.9061 43.3612 74.9561 41.3471C76.3561 38.6615 76.3998 38.2484 76.2248 34.9948C75.9623 31.5346 74.3873 25.5954 73.6873 25.5954C73.4686 25.5954 73.2061 25.802 73.0748 26.0602Z" fill="#6C63FF"/>
<path d="M377.662 46.873C377.662 47.5444 377.618 48.2674 377.618 48.5773C377.618 48.8355 379.543 52.0891 381.906 55.8076C398.181 81.3717 407.193 103.476 411.262 127.49C414.324 145.824 413.537 160.801 408.593 178.98C406.931 185.126 402.818 197.521 400.193 204.286C398.487 208.676 398.531 211.207 400.193 210.897C401.331 210.69 401.987 209.192 406.143 197.572C413.362 177.069 416.249 163.125 416.249 148.407C416.249 129.763 411.481 107.917 403.037 87.8273C398.749 77.7049 388.949 59.9391 381.599 48.9388C379.324 45.5819 377.793 44.7556 377.662 46.873Z" fill="#6C63FF"/>
<path d="M407.5 63.8125C407.5 64.3806 407.325 64.8454 407.106 64.8454C406.888 64.8454 408.55 69.3385 410.781 74.8645C421.281 100.429 425.7 116.077 427.45 133.791C428.325 142.571 428.106 159.51 427.013 167.102C425.306 178.722 421.894 191.427 415.419 210.019C413.144 216.474 412.094 220.141 412.4 220.348C412.663 220.554 412.75 220.916 412.575 221.226C412.094 222.207 413.756 222.413 414.544 221.484C415.55 220.193 421.938 201.652 424.781 191.633C431.344 168.651 432.831 151.609 430.206 129.711C428.15 112.72 423.425 96.5553 413.581 73.0569C410.081 64.7421 409.119 62.7796 408.375 62.7796C407.806 62.7796 407.5 63.1412 407.5 63.8125Z" fill="#6C63FF"/>
<path d="M443.375 153.674C443.375 154.036 443.025 154.139 442.5 153.933C442.019 153.726 441.625 153.829 441.625 154.139C441.625 154.449 441.8 154.707 442.019 154.707C442.237 154.707 442.325 155.12 442.194 155.637C442.062 156.308 443.287 157.599 447.181 160.905C466.606 177.431 478.769 191.014 490.056 208.779C499.812 224.221 506.156 238.527 511.887 258.203C513.944 265.382 517.444 279.016 519.062 286.246C519.325 287.486 519.762 288.467 520.025 288.467C520.287 288.467 520.769 288.88 521.075 289.397C521.6 290.223 521.644 290.171 521.687 289.139C521.687 288.519 521.906 287.951 522.212 287.847C522.825 287.589 519.456 272.87 515.912 260.321C507.862 231.761 497.669 211.258 480.694 189.619C473.562 180.478 462.712 169.581 450.156 158.787C443.331 152.9 443.375 152.951 443.375 153.674Z" fill="#6C63FF"/>
<path d="M498.631 177.018C498.675 178.464 499.069 179.135 501.037 181.046C506.025 185.849 514.95 195.868 518.669 200.878C530.087 216.113 535.819 230.109 541.331 256.189C543.431 266.105 545.706 278.293 547.281 288.209C548.681 297.04 548.725 297.247 549.469 297.247C549.775 297.247 550.169 297.557 550.256 297.867C550.387 298.28 550.519 298.176 550.519 297.66C550.562 297.195 550.869 296.575 551.219 296.369C551.787 295.956 551.569 294.045 549.469 281.753C541.025 232.433 534.681 214.873 517.969 194.525C510.925 185.952 500.644 175.262 500.031 175.882C499.725 176.191 499.331 176.14 499.069 175.83C498.719 175.417 498.587 175.778 498.631 177.018Z" fill="#6C63FF"/>
<path d="M435.718 189.671C435.718 191.117 436.899 192.718 444.293 201.549C453.568 212.704 457.374 217.817 463.237 227.165C476.931 248.959 489.487 282.27 496.268 314.806C498.412 324.98 502 346.671 502 349.201C502 349.873 502.218 350.441 502.481 350.441C502.787 350.441 503.268 350.854 503.575 351.319C504.143 352.197 504.143 352.197 504.187 351.319C504.187 350.802 504.493 350.286 504.843 350.131C505.237 349.924 505.412 349.356 505.281 348.478C499.987 312.327 495.393 292.65 486.337 268.067C475.793 239.198 465.687 221.742 445.343 197.159C439.612 190.239 437.556 188.018 436.724 188.018C435.806 188.018 435.674 188.225 435.718 189.671Z" fill="#6C63FF"/>
</svg>
