<svg width="300" height="251" viewBox="0 0 300 251" fill="none" xmlns="http://www.w3.org/2000/svg">
<path d="M156.724 218.868L116.727 148.888C108.846 152.754 100.221 154.963 91.1793 155.147L136.507 234.449C138.762 238.395 142.548 240.749 146.632 240.749C149.014 240.749 151.33 239.936 153.326 238.397C158.899 234.1 160.424 225.34 156.724 218.868Z" fill="#0011AE"/>
<path d="M89.9519 141.61C121.576 141.61 147.306 111.732 147.306 75.0081C147.306 38.2845 121.576 8.40674 89.9519 8.40674H23.3826C16.692 8.40674 11.25 14.7279 11.25 22.4956C11.25 30.2633 16.6935 36.5845 23.3826 36.5845H89.9519C108.197 36.5845 123.04 53.8216 123.04 75.0081C123.04 96.1964 108.197 113.432 89.9519 113.432H23.3826C16.692 113.432 11.25 119.753 11.25 127.521C11.25 135.29 16.6935 141.61 23.3826 141.61H89.9519Z" fill="#1D06AA"/>
<path d="M226.113 153.764L283.717 91.9296C289.729 85.4753 288.827 75.8288 281.701 70.383C274.575 64.9373 263.924 65.7551 257.911 72.209L198.41 136.081V82.069C198.41 73.6242 190.852 66.7786 181.528 66.7786C172.204 66.7786 164.646 73.6242 164.646 82.069V225.459C164.646 233.904 172.204 240.749 181.528 240.749C190.852 240.749 198.41 233.904 198.41 225.459V183.503L204.025 177.475L257.911 235.319C261.251 238.904 266.02 240.749 270.823 240.749C274.667 240.749 278.533 239.566 281.701 237.145C288.827 231.699 289.729 222.053 283.717 215.598L226.113 153.764Z" fill="#0011AE"/>
<path d="M11.25 46.1768V103.663C14.8052 101.206 18.9543 99.7901 23.3826 99.7901H35.5153V50.05H23.3826C18.9527 50.05 14.8052 48.6336 11.25 46.1768Z" fill="#0011AE"/>
<path d="M23.3826 155.165C18.9527 155.165 14.8052 153.748 11.25 151.292V226.659C11.25 234.426 16.6935 240.746 23.3826 240.746C30.0733 240.746 35.5153 234.426 35.5153 226.659V155.165H23.3826Z" fill="#0011AE"/>
</svg>
