<svg width="1109" height="918" viewBox="0 0 1109 918" fill="none" xmlns="http://www.w3.org/2000/svg">
<path d="M48.0615 462.852C60.0729 435.086 66.8664 410.902 63.2351 408.835C59.6039 406.769 46.923 427.602 34.9116 455.368C22.9002 483.135 16.1068 507.319 19.738 509.385C23.3693 511.452 36.0501 490.618 48.0615 462.852Z" fill="#E0E0E0"/>
<path d="M657.372 809.937C669.383 782.171 677.12 758.524 674.653 757.119C672.186 755.715 660.448 777.086 648.437 804.852C636.426 832.618 628.689 856.266 631.156 857.67C633.623 859.074 645.36 837.703 657.372 809.937Z" fill="#E0E0E0"/>
<path d="M329.945 669.569L307.307 648.129L244.995 734.682L267.634 756.123L329.945 669.569Z" fill="#F55F44"/>
<path opacity="0.05" d="M277.885 763.028L310.042 771.7L332.441 662.432L300.284 653.761L277.885 763.028Z" fill="black"/>
<path d="M281.462 763.992L310.042 771.7L332.441 662.432L303.861 654.725L281.462 763.992Z" fill="#F55F44"/>
<path d="M64.3223 406.321L18.6504 511.899L630.119 859.882L675.791 754.304L64.3223 406.321Z" fill="url(#paint0_linear)"/>
<path d="M631.207 857.368C619.238 850.783 10.9713 504.396 19.7379 509.385C53.4985 450.283 63.235 408.835 63.235 408.835L674.704 756.818C674.704 756.818 653.23 800.043 631.207 857.368Z" fill="#F5F5F5"/>
<path opacity="0.05" d="M381.024 589.686L330.616 561L287.119 661.55L337.526 690.237L381.024 589.686Z" fill="black"/>
<path d="M378.832 588.439L332.808 562.247L289.311 662.797L335.335 688.989L378.832 588.439Z" fill="#F55F44"/>
<path opacity="0.05" d="M370.065 583.45L339.382 565.989L295.885 666.539L326.568 684L370.065 583.45Z" fill="black"/>
<path d="M367.874 582.203L341.574 567.236L298.077 667.786L324.377 682.753L367.874 582.203Z" fill="#F55F44"/>
<path d="M364.332 906.506C366.585 906.506 368.411 904.411 368.411 901.827C368.411 899.243 366.585 897.149 364.332 897.149C362.079 897.149 360.253 899.243 360.253 901.827C360.253 904.411 362.079 906.506 364.332 906.506Z" fill="#DBDBDB"/>
<g opacity="0.5">
<path opacity="0.5" d="M45.1662 770.813H40.9834V797.999H45.1662V770.813Z" fill="#47E6B1"/>
<path opacity="0.5" d="M54.9263 786.805V782.007H31.2236V786.805H54.9263Z" fill="#47E6B1"/>
</g>
<g opacity="0.5">
<path opacity="0.5" d="M1099.24 431.783H1095.06V458.97H1099.24V431.783Z" fill="#47E6B1"/>
<path opacity="0.5" d="M1109 447.775V442.978H1085.3V447.775H1109Z" fill="#47E6B1"/>
</g>
<g opacity="0.5">
<path opacity="0.5" d="M70.2634 94.3527H66.0806V121.539H70.2634V94.3527Z" fill="#47E6B1"/>
<path opacity="0.5" d="M80.0234 110.345V105.547H56.3207V110.345H80.0234Z" fill="#47E6B1"/>
</g>
<g opacity="0.5">
<path opacity="0.5" d="M973.755 52.7735H969.572V79.9599H973.755V52.7735Z" fill="#47E6B1"/>
<path opacity="0.5" d="M983.515 68.7655V63.9679H959.812V68.7655H983.515Z" fill="#47E6B1"/>
</g>
<path opacity="0.5" d="M17.136 405.327C15.9833 404.751 15.0554 403.709 14.529 402.399C14.0026 401.09 13.9144 399.604 14.2812 398.225C14.3406 398.013 14.378 397.794 14.3926 397.573V397.573C14.4262 396.941 14.2814 396.313 13.9796 395.783C13.6779 395.253 13.2353 394.848 12.7175 394.629C12.1996 394.41 11.6339 394.388 11.1043 394.567C10.5747 394.745 10.1093 395.114 9.77695 395.62V395.62C9.66268 395.799 9.56726 395.994 9.49266 396.199C8.99063 397.521 8.08229 398.585 6.94051 399.189C5.79874 399.792 4.50326 399.894 3.30068 399.473C3.11631 399.405 2.92558 399.362 2.73245 399.345V399.345C2.18147 399.307 1.63435 399.473 1.17212 399.819C0.709886 400.165 0.357129 400.673 0.166089 401.267C-0.0249515 401.861 -0.0441056 402.509 0.111455 403.117C0.267015 403.724 0.58901 404.258 1.02977 404.639V404.639C1.18615 404.77 1.35547 404.88 1.53422 404.965C2.68692 405.541 3.61479 406.583 4.14119 407.892C4.6676 409.202 4.75578 410.688 4.38898 412.067C4.32962 412.279 4.29222 412.498 4.27756 412.719V412.719C4.24402 413.351 4.38885 413.978 4.69057 414.509C4.9923 415.039 5.43487 415.443 5.95276 415.663C6.47064 415.882 7.03629 415.904 7.56591 415.725C8.09553 415.547 8.56095 415.177 8.89326 414.672V414.672C9.00753 414.493 9.10296 414.298 9.17755 414.093C9.67958 412.771 10.5879 411.707 11.7297 411.103C12.8715 410.499 14.1669 410.398 15.3695 410.819C15.5539 410.887 15.7446 410.93 15.9378 410.947V410.947C16.4887 410.985 17.0359 410.819 17.4981 410.473C17.9604 410.127 18.3131 409.619 18.5042 409.025C18.6952 408.431 18.7144 407.783 18.5588 407.175C18.4032 406.568 18.0812 406.034 17.6404 405.653C17.4841 405.522 17.3147 405.412 17.136 405.327V405.327Z" fill="#4D8AF0"/>
<path opacity="0.5" d="M256.951 90.2847C255.798 89.7089 254.87 88.6671 254.344 87.3575C253.818 86.0479 253.729 84.562 254.096 83.1827C254.156 82.9713 254.193 82.7525 254.208 82.531V82.531C254.241 81.899 254.096 81.2715 253.795 80.7413C253.493 80.2111 253.05 79.8065 252.532 79.5874C252.015 79.3683 251.449 79.3463 250.919 79.5247C250.39 79.7031 249.924 80.0725 249.592 80.578V80.578C249.478 80.7574 249.382 80.9516 249.308 81.1566C248.806 82.4788 247.897 83.543 246.755 84.1468C245.614 84.7505 244.318 84.8517 243.116 84.431C242.931 84.3629 242.741 84.32 242.547 84.3032V84.3032C241.996 84.2647 241.449 84.4308 240.987 84.7769C240.525 85.123 240.172 85.6306 239.981 86.2246C239.79 86.8186 239.771 87.4673 239.926 88.0748C240.082 88.6823 240.404 89.2161 240.845 89.5972V89.5972C241.001 89.7283 241.17 89.8378 241.349 89.9233C242.502 90.4991 243.43 91.541 243.956 92.8506C244.483 94.1602 244.571 95.646 244.204 97.0253C244.145 97.2368 244.107 97.4556 244.093 97.6771V97.6771C244.059 98.309 244.204 98.9366 244.506 99.4668C244.807 99.9969 245.25 100.402 245.768 100.621C246.286 100.84 246.851 100.862 247.381 100.683C247.91 100.505 248.376 100.136 248.708 99.63C248.823 99.4506 248.918 99.2564 248.993 99.0514C249.495 97.7293 250.403 96.6651 251.545 96.0613C252.686 95.4575 253.982 95.3564 255.185 95.7771C255.369 95.8452 255.56 95.8881 255.753 95.9049V95.9049C256.304 95.9433 256.851 95.7773 257.313 95.4312C257.775 95.0851 258.128 94.5775 258.319 93.9835C258.51 93.3895 258.529 92.7407 258.374 92.1333C258.218 91.5258 257.896 90.9919 257.455 90.6108V90.6108C257.299 90.4798 257.13 90.3703 256.951 90.2847V90.2847Z" fill="#4D8AF0"/>
<path opacity="0.5" d="M549.749 907.474C548.597 906.899 547.669 905.857 547.142 904.547C546.616 903.238 546.528 901.752 546.895 900.372C546.954 900.161 546.991 899.942 547.006 899.721V899.721C547.039 899.089 546.895 898.461 546.593 897.931C546.291 897.401 545.849 896.996 545.331 896.777C544.813 896.558 544.247 896.536 543.718 896.714C543.188 896.893 542.722 897.262 542.39 897.768C542.276 897.947 542.181 898.141 542.106 898.346C541.604 899.668 540.696 900.733 539.554 901.336C538.412 901.94 537.117 902.041 535.914 901.621C535.73 901.553 535.539 901.51 535.346 901.493V901.493C534.795 901.454 534.248 901.621 533.785 901.967C533.323 902.313 532.97 902.82 532.779 903.414C532.588 904.008 532.569 904.657 532.725 905.265C532.88 905.872 533.202 906.406 533.643 906.787C533.799 906.918 533.969 907.027 534.148 907.113C535.3 907.689 536.228 908.731 536.754 910.04C537.281 911.35 537.369 912.836 537.002 914.215C536.943 914.426 536.906 914.645 536.891 914.867V914.867C536.857 915.499 537.002 916.126 537.304 916.656C537.606 917.187 538.048 917.591 538.566 917.81C539.084 918.03 539.65 918.051 540.179 917.873C540.709 917.695 541.174 917.325 541.507 916.82V916.82C541.621 916.64 541.716 916.446 541.791 916.241C542.293 914.919 543.201 913.855 544.343 913.251C545.485 912.647 546.78 912.546 547.983 912.967C548.167 913.035 548.358 913.078 548.551 913.095V913.095C549.102 913.133 549.649 912.967 550.111 912.621C550.574 912.275 550.926 911.767 551.117 911.173C551.308 910.579 551.328 909.93 551.172 909.323C551.016 908.716 550.695 908.182 550.254 907.8V907.8C550.097 907.669 549.928 907.56 549.749 907.474V907.474Z" fill="#4D8AF0"/>
<path opacity="0.5" d="M1058.81 719.639C1063.43 719.639 1067.17 715.343 1067.17 710.044C1067.17 704.744 1063.43 700.448 1058.81 700.448C1054.19 700.448 1050.44 704.744 1050.44 710.044C1050.44 715.343 1054.19 719.639 1058.81 719.639Z" fill="#F55F44"/>
<path opacity="0.5" d="M874.762 780.408C879.382 780.408 883.127 776.112 883.127 770.813C883.127 765.514 879.382 761.218 874.762 761.218C870.141 761.218 866.396 765.514 866.396 770.813C866.396 776.112 870.141 780.408 874.762 780.408Z" fill="#4D8AF0"/>
<path opacity="0.5" d="M144.161 874.761C148.781 874.761 152.526 870.465 152.526 865.166C152.526 859.866 148.781 855.57 144.161 855.57C139.54 855.57 135.795 859.866 135.795 865.166C135.795 870.465 139.54 874.761 144.161 874.761Z" fill="#47E6B1"/>
<path opacity="0.5" d="M573.598 19.1904C578.218 19.1904 581.963 14.8945 581.963 9.59518C581.963 4.29591 578.218 0 573.598 0C568.977 0 565.232 4.29591 565.232 9.59518C565.232 14.8945 568.977 19.1904 573.598 19.1904Z" fill="#F55F44"/>
<path d="M285.679 571.713L252.217 629.284C252.217 629.284 263.371 688.454 510.158 686.855C756.945 685.256 776.465 629.284 776.465 629.284L730.454 552.523L589.632 442.178L285.679 571.713Z" fill="#6C63FF"/>
<path opacity="0.15" d="M285.679 571.713L252.217 629.284C252.217 629.284 263.371 688.454 510.158 686.855C756.945 685.256 776.465 629.284 776.465 629.284L730.454 552.523L589.632 442.178L285.679 571.713Z" fill="black"/>
<path d="M997.458 358.22L558.26 580.509L22.8579 358.22L513.643 102.349L754.561 229.757L763.191 234.33L997.458 358.22Z" fill="#6C63FF"/>
<path opacity="0.15" d="M997.458 358.22L558.26 580.509L22.8579 358.22L513.643 102.349L754.561 229.757L763.191 234.33L997.458 358.22Z" fill="black"/>
<path d="M772.282 411.505L763.916 412.081L754.561 229.757L763.191 234.33L772.282 411.505Z" fill="#F5F5F5"/>
<path d="M291.257 357.421L252.217 629.284C252.217 629.284 532.466 525.336 776.465 629.284L740.214 341.429C740.214 341.429 412.559 295.052 291.257 357.421Z" fill="#6C63FF"/>
<path d="M771.585 466.966C793.916 466.966 812.019 452.646 812.019 434.982C812.019 417.317 793.916 402.998 771.585 402.998C749.254 402.998 731.151 417.317 731.151 434.982C731.151 452.646 749.254 466.966 771.585 466.966Z" fill="#F5F5F5"/>
<defs>
<linearGradient id="paint0_linear" x1="324.385" y1="685.89" x2="380.943" y2="586.508" gradientUnits="userSpaceOnUse">
<stop stop-color="#808080" stop-opacity="0.25"/>
<stop offset="0.53514" stop-color="#808080" stop-opacity="0.12"/>
<stop offset="1" stop-color="#808080" stop-opacity="0.1"/>
</linearGradient>
</defs>
</svg>
